<svg viewBox="0 0 1637 1181" fill="none" xmlns="http://www.w3.org/2000/svg">
<g clip-path="url(#clip0_533_3686)">
<path d="M1235.88 388.464H1226.05V776.809H1235.88V388.464Z" fill="#3F3D56"/>
<path d="M1326.61 437.954C1327.24 573.749 1231.7 684.274 1231.7 684.274C1231.7 684.274 1135.15 574.634 1134.52 438.839C1133.9 303.045 1229.44 192.519 1229.44 192.519C1229.44 192.519 1325.99 302.159 1326.61 437.954Z" fill="#3F3D56"/>
<path d="M1039.3 571.186H1034.24V770.921H1039.3V571.186Z" fill="#3F3D56"/>
<path d="M1085.97 596.639C1086.29 666.482 1037.15 723.328 1037.15 723.328C1037.15 723.328 987.491 666.937 987.17 597.095C986.848 527.252 1035.99 470.406 1035.99 470.406C1035.99 470.406 1085.65 526.797 1085.97 596.639Z" fill="#3F3D56"/>
<path d="M1138.97 797.515C1214.63 797.515 1275.97 788.113 1275.97 776.515C1275.97 764.917 1214.63 755.515 1138.97 755.515C1063.31 755.515 1001.97 764.917 1001.97 776.515C1001.97 788.113 1063.31 797.515 1138.97 797.515Z" fill="#3F3D56"/>
<path d="M1150.27 287.082C1138.66 267.469 1115.7 266.555 1115.7 266.555C1115.7 266.555 1093.32 263.694 1078.97 293.563C1065.59 321.404 1047.12 348.285 1075.99 354.802L1081.21 338.571L1084.44 356.011C1088.55 356.307 1092.67 356.377 1096.79 356.222C1127.71 355.224 1157.16 356.514 1156.21 345.419C1154.95 330.669 1161.44 305.952 1150.27 287.082Z" fill="#2F2E41"/>
<path d="M1108.47 324.015C1108.47 324.015 1123.47 345.015 1114.47 362.015C1105.47 379.015 1135.47 397.015 1135.47 397.015L1157.47 349.015C1157.47 349.015 1131.47 332.015 1138.47 316.015L1108.47 324.015Z" fill="#FBBEBE"/>
<path d="M1118.47 333.015C1132.83 333.015 1144.47 321.374 1144.47 307.015C1144.47 292.655 1132.83 281.015 1118.47 281.015C1104.11 281.015 1092.47 292.655 1092.47 307.015C1092.47 321.374 1104.11 333.015 1118.47 333.015Z" fill="#FBBEBE"/>
<path d="M1028.49 337.071L1050.22 309.037C1050.22 309.037 1057.87 279.652 1068.95 281.142C1080.03 282.631 1064.57 316.382 1064.57 316.382L1042.98 347.412L1028.49 337.071Z" fill="#FBBEBE"/>
<path d="M1138.47 710.015L1145.47 747.015L1160.47 751.015L1156.47 707.015L1138.47 710.015Z" fill="#FBBEBE"/>
<path d="M1289.47 670.015L1316.47 707.015L1327.47 712.015L1336.47 697.015L1309.47 662.015L1289.47 670.015Z" fill="#FBBEBE"/>
<path d="M1132.47 381.015L1115.79 359.055C1115.79 359.055 1083.47 365.015 1080.47 368.015C1077.47 371.015 1088.47 426.015 1088.47 426.015C1088.47 426.015 1090.47 441.015 1099.47 449.015L1108.47 455.015L1182.47 440.015L1185.25 407.089C1186.26 395.096 1184.76 383.024 1180.84 371.646C1176.92 360.267 1170.66 349.834 1162.47 341.015V341.015L1149.59 342.775L1132.47 381.015Z" fill="#575A89"/>
<path d="M1084.47 370.015L1079.47 368.015L1056.47 366.015C1056.47 366.015 1048.47 364.015 1050.47 360.015C1052.47 356.015 1054.47 355.015 1050.47 354.015C1046.47 353.015 1045.47 352.015 1046.47 349.015C1047.47 346.015 1053.47 340.015 1053.47 340.015L1036.47 326.015C1036.47 326.015 1035.55 326.665 1034.06 327.87C1025.62 334.703 998.914 359.359 1018.47 384.015C1041.47 413.015 1068.47 430.015 1090.47 424.015L1084.47 370.015Z" fill="#575A89"/>
<path d="M1106.47 450.015V464.015C1106.47 464.015 1097.47 481.015 1100.47 497.015C1103.47 513.015 1104.47 521.015 1104.47 521.015C1104.8 534.622 1107.15 548.105 1111.47 561.015C1118.47 581.015 1095.47 712.015 1124.47 714.015C1153.47 716.015 1169.47 718.015 1178.47 708.015C1187.47 698.015 1163.47 526.015 1163.47 526.015C1163.47 526.015 1245.47 697.015 1262.47 690.015C1279.47 683.015 1322.47 667.015 1317.47 658.015C1312.47 649.015 1186.47 449.015 1186.47 449.015L1182.47 440.015L1106.47 450.015Z" fill="#2F2E41"/>
<path d="M1154.47 740.015C1154.47 740.015 1138.47 739.015 1138.47 744.015C1138.47 749.015 1130.47 766.015 1130.47 766.015C1130.47 766.015 1124.47 786.015 1140.47 784.015C1156.47 782.015 1166.47 764.015 1166.47 764.015L1162.47 745.015L1154.47 740.015Z" fill="#2F2E41"/>
<path d="M1321.47 705.015C1321.47 705.015 1307.47 696.015 1308.47 702.015C1309.47 708.015 1310.47 724.015 1317.47 725.015C1324.47 726.015 1345.47 732.015 1346.47 734.015C1347.47 736.015 1371.47 744.015 1371.47 731.015C1371.47 718.015 1356.47 708.015 1356.47 708.015L1339.47 695.015C1339.47 695.015 1328.47 694.015 1326.47 701.015C1324.47 708.015 1321.47 705.015 1321.47 705.015Z" fill="#2F2E41"/>
<path d="M1118.51 283.258C1127.68 283.258 1135.11 275.825 1135.11 266.655C1135.11 257.485 1127.68 250.051 1118.51 250.051C1109.34 250.051 1101.9 257.485 1101.9 266.655C1101.9 275.825 1109.34 283.258 1118.51 283.258Z" fill="#2F2E41"/>
<path d="M1100.16 262.285C1100.16 258.185 1101.67 254.229 1104.42 251.181C1107.16 248.132 1110.93 246.207 1115.01 245.775C1114.43 245.713 1113.85 245.682 1113.26 245.682C1108.86 245.682 1104.64 247.431 1101.52 250.545C1098.41 253.659 1096.66 257.882 1096.66 262.285C1096.66 266.689 1098.41 270.912 1101.52 274.026C1104.64 277.14 1108.86 278.889 1113.26 278.889C1113.85 278.888 1114.43 278.857 1115.01 278.796C1110.93 278.364 1107.16 276.438 1104.42 273.39C1101.67 270.342 1100.16 266.386 1100.16 262.285V262.285Z" fill="#2F2E41"/>
<path d="M1145.14 285.191L1122.45 273.307L1091.12 278.169L1084.64 306.797L1100.77 306.176L1105.28 295.659V306.003L1112.73 305.717L1117.05 288.972L1119.75 306.797L1146.22 306.257L1145.14 285.191Z" fill="#2F2E41"/>
<path d="M1143.78 452.331L1108.79 453.277C1108.79 453.277 1078.94 459.086 1080.61 447.036C1082.29 434.987 1111.41 439.201 1111.41 439.201L1143.29 434.338L1143.78 452.331Z" fill="#FBBEBE"/>
<path d="M1171.46 339.319C1173.22 339.053 1175.01 339.423 1176.52 340.364C1178.03 341.304 1179.16 342.752 1179.7 344.447C1186.54 366.031 1207.65 438.261 1186.68 448.17C1161.99 459.842 1143.97 459.329 1143.97 459.329L1134.32 435.581L1143.1 427.34L1152.48 367.065L1156.97 341.515L1171.46 339.319Z" fill="#575A89"/>
<path opacity="0.4" d="M1164.97 379.515L1160.97 419.515L1125.97 434.515L1164.97 425.515V379.515Z" fill="black"/>
<path d="M976.214 247.463C987.487 250.45 997.241 257.535 1003.57 267.332L1006.84 272.398L1007 272.608L1064.39 289.399C1065.44 289.707 1066.33 290.415 1066.86 291.372C1067.4 292.328 1067.54 293.457 1067.25 294.514L1062.79 310.849C1062.65 311.381 1062.4 311.879 1062.06 312.315C1061.72 312.75 1061.3 313.115 1060.82 313.387C1060.34 313.659 1059.81 313.834 1059.27 313.901C1058.72 313.968 1058.16 313.926 1057.63 313.777L1000.23 297.733L1000.23 297.735L994.466 299.914C983.85 303.928 972.207 304.323 961.344 301.04V301.04L976.214 247.463Z" fill="#3F3D56"/>
<path d="M1036.65 294.836C1037.19 292.978 1034.81 290.647 1031.32 289.628C1027.84 288.608 1024.58 289.288 1024.03 291.146C1023.49 293.003 1025.87 295.335 1029.36 296.354C1032.84 297.373 1036.1 296.693 1036.65 294.836Z" fill="#575A89"/>
<path d="M1033.72 296.549C1035.05 296.549 1036.12 295.47 1036.12 294.14C1036.12 292.809 1035.05 291.73 1033.72 291.73C1032.39 291.73 1031.31 292.809 1031.31 294.14C1031.31 295.47 1032.39 296.549 1033.72 296.549Z" fill="#3F3D56"/>
<path d="M981.012 278.404C985.797 263.646 984.267 249.929 977.593 247.765C970.92 245.601 961.63 255.81 956.845 270.567C952.06 285.325 953.591 299.042 960.264 301.206C966.938 303.37 976.227 293.161 981.012 278.404Z" fill="#BDC3C7"/>
<path opacity="0.4" d="M979.228 277.881C983.839 263.662 982.585 250.409 976.517 247.526C976.882 247.572 977.242 247.652 977.593 247.764C984.266 249.928 985.797 263.646 981.012 278.403C976.226 293.161 966.937 303.37 960.264 301.206C960.022 301.127 959.785 301.032 959.556 300.922C966.12 301.758 974.695 291.862 979.228 277.881Z" fill="black"/>
<path d="M976.969 247.515L846.731 146.49C823.7 128.496 801.6 109.343 780.516 89.1043C743.39 53.7166 692.992 25.4235 634.315 10.36C491.753 -26.2376 378.816 38.6545 327.449 133.938C248.954 279.542 188.798 515.818 536.843 390.048C612.959 362.543 690.007 359.619 748.429 345.131L959.969 301.515L976.969 247.515Z" fill="#BDC3C7"/>
<path d="M585.969 77.5146C589.835 77.5146 592.969 74.3806 592.969 70.5146C592.969 66.6487 589.835 63.5146 585.969 63.5146C582.103 63.5146 578.969 66.6487 578.969 70.5146C578.969 74.3806 582.103 77.5146 585.969 77.5146Z" fill="#F2F2F2"/>
<path d="M721.949 86.695H720.127V84.873H719.771V86.695H717.949V87.051H719.771V88.873H720.127V87.051H721.949V86.695Z" fill="#F2F2F2"/>
<path d="M904.949 238.695H903.127V236.873H902.771V238.695H900.949V239.051H902.771V240.873H903.127V239.051H904.949V238.695Z" fill="#F2F2F2"/>
<path d="M891.949 285.695H890.127V283.873H889.771V285.695H887.949V286.051H889.771V287.873H890.127V286.051H891.949V285.695Z" fill="#F2F2F2"/>
<path d="M332.949 325.695H331.127V323.873H330.771V325.695H328.949V326.051H330.771V327.873H331.127V326.051H332.949V325.695Z" fill="#F2F2F2"/>
<path d="M412.949 107.695H411.127V105.873H410.771V107.695H408.949V108.051H410.771V109.873H411.127V108.051H412.949V107.695Z" fill="#F2F2F2"/>
<path d="M723.949 293.695H722.127V291.873H721.771V293.695H719.949V294.051H721.771V295.873H722.127V294.051H723.949V293.695Z" fill="#F2F2F2"/>
<path d="M532.949 43.695H531.127V41.873H530.771V43.695H528.949V44.051H530.771V45.873H531.127V44.051H532.949V43.695Z" fill="#F2F2F2"/>
<path d="M533.649 187.673L531.379 188.023C532.089 192.563 532.649 197.203 533.059 201.793L535.349 201.593C534.939 196.943 534.369 192.263 533.649 187.673Z" fill="#E6E6E6"/>
<path d="M527.439 160.333L525.239 161.003C526.569 165.403 527.759 169.913 528.769 174.403L531.019 173.893C529.989 169.353 528.779 164.793 527.439 160.333Z" fill="#E6E6E6"/>
<path d="M517.529 134.113L515.439 135.073C517.359 139.263 519.159 143.563 520.789 147.863L522.939 147.053C521.29 142.703 519.479 138.343 517.529 134.113Z" fill="#E6E6E6"/>
<path d="M504.129 109.533L502.189 110.763C504.659 114.643 507.029 118.663 509.229 122.693L511.249 121.593C509.029 117.513 506.629 113.453 504.129 109.533Z" fill="#E6E6E6"/>
<path d="M487.47 87.0029L485.72 88.4929C488.7 91.9929 491.6 95.6529 494.34 99.3529L496.18 97.9829C493.42 94.2429 490.49 90.5429 487.47 87.0029Z" fill="#E6E6E6"/>
<path d="M467.889 66.9434L466.359 68.6534C469.799 71.7234 473.169 74.9534 476.379 78.2434L478.029 76.6334C474.779 73.3034 471.369 70.0433 467.889 66.9434Z" fill="#E6E6E6"/>
<path d="M445.77 49.7227L444.479 51.6227C448.299 54.1927 452.08 56.9327 455.71 59.7627L457.13 57.9526C453.449 55.0927 449.629 52.3227 445.77 49.7227Z" fill="#E6E6E6"/>
<path d="M425.64 37.7627V40.3627C428.03 41.6127 430.4 42.9227 432.72 44.2627L433.87 42.2727C431.17 40.7127 428.426 39.2093 425.64 37.7627Z" fill="#E6E6E6"/>
<path d="M533.805 215.978L536.103 215.937C536.146 218.258 536.149 220.591 536.113 222.873L533.814 222.837C533.849 220.581 533.846 218.274 533.805 215.978Z" fill="#E6E6E6"/>
<path d="M398.649 384.673L396.379 385.023C397.089 389.563 397.649 394.203 398.059 398.793L400.349 398.593C399.939 393.943 399.369 389.263 398.649 384.673Z" fill="#E6E6E6"/>
<path d="M392.439 357.333L390.239 358.003C391.569 362.403 392.759 366.913 393.769 371.403L396.019 370.893C394.989 366.353 393.779 361.793 392.439 357.333Z" fill="#E6E6E6"/>
<path d="M382.529 331.113L380.439 332.073C382.359 336.263 384.159 340.563 385.789 344.863L387.939 344.053C386.289 339.703 384.479 335.343 382.529 331.113Z" fill="#E6E6E6"/>
<path d="M369.129 306.533L367.189 307.763C369.659 311.643 372.029 315.663 374.229 319.693L376.249 318.593C374.03 314.513 371.629 310.453 369.129 306.533Z" fill="#E6E6E6"/>
<path d="M352.47 284.003L350.72 285.493C353.7 288.993 356.6 292.653 359.34 296.353L361.18 294.983C358.42 291.243 355.49 287.543 352.47 284.003Z" fill="#E6E6E6"/>
<path d="M332.889 263.943L331.359 265.653C334.799 268.723 338.169 271.953 341.379 275.243L343.029 273.633C339.779 270.303 336.369 267.043 332.889 263.943Z" fill="#E6E6E6"/>
<path d="M310.769 246.723L309.479 248.623C313.299 251.193 317.079 253.933 320.709 256.763L322.129 254.953C318.449 252.093 314.629 249.323 310.769 246.723Z" fill="#E6E6E6"/>
<path d="M290.64 234.763V237.363C293.03 238.613 295.4 239.923 297.72 241.263L298.87 239.273C296.17 237.713 293.426 236.209 290.64 234.763Z" fill="#E6E6E6"/>
<path d="M398.805 412.978L401.103 412.937C401.146 415.258 401.149 417.591 401.113 419.873L398.814 419.837C398.849 417.581 398.846 415.274 398.805 412.978Z" fill="#E6E6E6"/>
<path d="M860.649 285.673L858.379 286.023C859.089 290.563 859.649 295.203 860.059 299.793L862.349 299.593C861.939 294.943 861.369 290.263 860.649 285.673Z" fill="#E6E6E6"/>
<path d="M854.439 258.333L852.239 259.003C853.569 263.403 854.759 267.913 855.769 272.403L858.019 271.893C856.989 267.353 855.779 262.793 854.439 258.333Z" fill="#E6E6E6"/>
<path d="M844.529 232.113L842.439 233.073C844.359 237.263 846.159 241.563 847.789 245.863L849.939 245.053C848.289 240.703 846.479 236.343 844.529 232.113Z" fill="#E6E6E6"/>
<path d="M831.129 207.533L829.189 208.763C831.659 212.643 834.029 216.663 836.229 220.693L838.249 219.593C836.03 215.513 833.629 211.453 831.129 207.533Z" fill="#E6E6E6"/>
<path d="M814.47 185.003L812.72 186.493C815.7 189.993 818.6 193.653 821.34 197.353L823.18 195.983C820.42 192.243 817.49 188.543 814.47 185.003Z" fill="#E6E6E6"/>
<path d="M794.889 164.943L793.359 166.653C796.799 169.723 800.169 172.953 803.379 176.243L805.029 174.633C801.779 171.303 798.369 168.043 794.889 164.943Z" fill="#E6E6E6"/>
<path d="M772.769 147.723L771.479 149.623C775.299 152.193 779.079 154.933 782.709 157.763L784.13 155.953C780.45 153.093 776.629 150.323 772.769 147.723Z" fill="#E6E6E6"/>
<path d="M752.64 135.763V138.363C755.03 139.613 757.4 140.923 759.72 142.263L760.87 140.273C758.17 138.713 755.426 137.209 752.64 135.763Z" fill="#E6E6E6"/>
<path d="M860.805 313.978L863.103 313.937C863.146 316.258 863.149 318.591 863.113 320.873L860.814 320.837C860.849 318.581 860.846 316.274 860.805 313.978Z" fill="#E6E6E6"/>
<path d="M416.295 199.895H414.6V198.199H414.269V199.895H412.573V200.225H414.269V201.921H414.6V200.225H416.295V199.895Z" fill="#F2F2F2"/>
<path d="M396.754 302.252H395.059V300.556H394.728V302.252H393.032V302.583H394.728V304.278H395.059V302.583H396.754V302.252Z" fill="#F2F2F2"/>
<path d="M339.417 391.959H337.721V390.264H337.39V391.959H335.695V392.29H337.39V393.986H337.721V392.29H339.417V391.959Z" fill="#F2F2F2"/>
<path d="M498.918 278.183C482.525 253.814 475.407 224.378 478.855 195.212C482.303 166.046 496.089 139.081 517.713 119.208C539.337 99.3345 567.367 87.8683 596.72 86.8887C626.073 85.9091 654.805 95.4809 677.706 113.868C700.607 132.256 716.161 158.241 721.546 187.113C726.931 215.984 721.791 245.829 707.059 271.236C692.327 296.643 668.978 315.929 641.245 325.598C613.513 335.266 583.234 334.675 555.9 323.934C554.128 330.259 550.815 336.046 546.258 340.777C541.701 345.508 536.041 349.035 529.787 351.042C523.532 353.05 516.878 353.475 510.418 352.28C503.959 351.084 497.897 348.306 492.775 344.193C487.653 340.081 483.631 334.762 481.068 328.714C478.506 322.666 477.483 316.076 478.092 309.536C478.7 302.995 480.921 296.708 484.556 291.236C488.191 285.764 493.125 281.279 498.918 278.183V278.183Z" fill="#3F3D56"/>
<path d="M600.128 139.437C628.282 139.437 647.652 155.053 647.652 177.501C647.652 192.366 640.444 202.652 626.555 210.835C613.492 218.418 609.062 223.974 609.062 233.584C609.062 234.362 608.909 235.134 608.611 235.853C608.312 236.573 607.876 237.227 607.325 237.777C606.774 238.328 606.12 238.765 605.401 239.063C604.681 239.361 603.91 239.515 603.131 239.515H588.738C587.201 239.515 585.724 238.918 584.618 237.85C583.512 236.782 582.864 235.327 582.81 233.79L582.785 233.058C581.509 217.592 586.914 207.982 600.503 200.024C613.191 192.441 618.522 187.636 618.522 178.327C618.522 169.017 609.512 162.185 598.326 162.185C589.823 162.185 583.095 166.324 580.008 173.081C578.923 175.368 577.206 177.297 575.06 178.639C572.913 179.981 570.428 180.68 567.896 180.654V180.654C558.144 180.654 551.702 170.283 556.263 161.664C563.477 148.028 578.699 139.437 600.128 139.437ZM580.382 268.119C580.382 259.485 587.59 252.653 596.449 252.653C605.383 252.653 612.591 259.41 612.591 268.119C612.591 276.828 605.383 283.585 596.449 283.585C587.515 283.585 580.382 276.828 580.382 268.119V268.119Z" fill="#BDC3C7"/>
</g>
<path d="M114.766 942.75C114.766 941.156 114.516 939.75 114.016 938.531C113.547 937.281 112.703 936.156 111.484 935.156C110.297 934.156 108.641 933.203 106.516 932.297C104.422 931.391 101.766 930.469 98.5469 929.531C95.1719 928.531 92.125 927.422 89.4062 926.203C86.6875 924.953 84.3594 923.531 82.4219 921.938C80.4844 920.344 79 918.516 77.9688 916.453C76.9375 914.391 76.4219 912.031 76.4219 909.375C76.4219 906.719 76.9688 904.266 78.0625 902.016C79.1562 899.766 80.7188 897.812 82.75 896.156C84.8125 894.469 87.2656 893.156 90.1094 892.219C92.9531 891.281 96.125 890.812 99.625 890.812C104.75 890.812 109.094 891.797 112.656 893.766C116.25 895.703 118.984 898.25 120.859 901.406C122.734 904.531 123.672 907.875 123.672 911.438H114.672C114.672 908.875 114.125 906.609 113.031 904.641C111.938 902.641 110.281 901.078 108.062 899.953C105.844 898.797 103.031 898.219 99.625 898.219C96.4062 898.219 93.75 898.703 91.6562 899.672C89.5625 900.641 88 901.953 86.9688 903.609C85.9688 905.266 85.4688 907.156 85.4688 909.281C85.4688 910.719 85.7656 912.031 86.3594 913.219C86.9844 914.375 87.9375 915.453 89.2188 916.453C90.5312 917.453 92.1875 918.375 94.1875 919.219C96.2188 920.062 98.6406 920.875 101.453 921.656C105.328 922.75 108.672 923.969 111.484 925.312C114.297 926.656 116.609 928.172 118.422 929.859C120.266 931.516 121.625 933.406 122.5 935.531C123.406 937.625 123.859 940 123.859 942.656C123.859 945.438 123.297 947.953 122.172 950.203C121.047 952.453 119.438 954.375 117.344 955.969C115.25 957.562 112.734 958.797 109.797 959.672C106.891 960.516 103.641 960.938 100.047 960.938C96.8906 960.938 93.7812 960.5 90.7188 959.625C87.6875 958.75 84.9219 957.438 82.4219 955.688C79.9531 953.938 77.9688 951.781 76.4688 949.219C75 946.625 74.2656 943.625 74.2656 940.219H83.2656C83.2656 942.562 83.7188 944.578 84.625 946.266C85.5312 947.922 86.7656 949.297 88.3281 950.391C89.9219 951.484 91.7188 952.297 93.7188 952.828C95.75 953.328 97.8594 953.578 100.047 953.578C103.203 953.578 105.875 953.141 108.062 952.266C110.25 951.391 111.906 950.141 113.031 948.516C114.188 946.891 114.766 944.969 114.766 942.75ZM131.781 935.203V934.125C131.781 930.469 132.312 927.078 133.375 923.953C134.438 920.797 135.969 918.062 137.969 915.75C139.969 913.406 142.391 911.594 145.234 910.312C148.078 909 151.266 908.344 154.797 908.344C158.359 908.344 161.562 909 164.406 910.312C167.281 911.594 169.719 913.406 171.719 915.75C173.75 918.062 175.297 920.797 176.359 923.953C177.422 927.078 177.953 930.469 177.953 934.125V935.203C177.953 938.859 177.422 942.25 176.359 945.375C175.297 948.5 173.75 951.234 171.719 953.578C169.719 955.891 167.297 957.703 164.453 959.016C161.641 960.297 158.453 960.938 154.891 960.938C151.328 960.938 148.125 960.297 145.281 959.016C142.438 957.703 140 955.891 137.969 953.578C135.969 951.234 134.438 948.5 133.375 945.375C132.312 942.25 131.781 938.859 131.781 935.203ZM140.453 934.125V935.203C140.453 937.734 140.75 940.125 141.344 942.375C141.938 944.594 142.828 946.562 144.016 948.281C145.234 950 146.75 951.359 148.562 952.359C150.375 953.328 152.484 953.812 154.891 953.812C157.266 953.812 159.344 953.328 161.125 952.359C162.938 951.359 164.438 950 165.625 948.281C166.812 946.562 167.703 944.594 168.297 942.375C168.922 940.125 169.234 937.734 169.234 935.203V934.125C169.234 931.625 168.922 929.266 168.297 927.047C167.703 924.797 166.797 922.812 165.578 921.094C164.391 919.344 162.891 917.969 161.078 916.969C159.297 915.969 157.203 915.469 154.797 915.469C152.422 915.469 150.328 915.969 148.516 916.969C146.734 917.969 145.234 919.344 144.016 921.094C142.828 922.812 141.938 924.797 141.344 927.047C140.75 929.266 140.453 931.625 140.453 934.125ZM197.5 917.25V960H188.828V909.281H197.266L197.5 917.25ZM213.344 909L213.297 917.062C212.578 916.906 211.891 916.812 211.234 916.781C210.609 916.719 209.891 916.688 209.078 916.688C207.078 916.688 205.312 917 203.781 917.625C202.25 918.25 200.953 919.125 199.891 920.25C198.828 921.375 197.984 922.719 197.359 924.281C196.766 925.812 196.375 927.5 196.188 929.344L193.75 930.75C193.75 927.688 194.047 924.812 194.641 922.125C195.266 919.438 196.219 917.062 197.5 915C198.781 912.906 200.406 911.281 202.375 910.125C204.375 908.938 206.75 908.344 209.5 908.344C210.125 908.344 210.844 908.422 211.656 908.578C212.469 908.703 213.031 908.844 213.344 909ZM230.031 917.25V960H221.359V909.281H229.797L230.031 917.25ZM245.875 909L245.828 917.062C245.109 916.906 244.422 916.812 243.766 916.781C243.141 916.719 242.422 916.688 241.609 916.688C239.609 916.688 237.844 917 236.312 917.625C234.781 918.25 233.484 919.125 232.422 920.25C231.359 921.375 230.516 922.719 229.891 924.281C229.297 925.812 228.906 927.5 228.719 929.344L226.281 930.75C226.281 927.688 226.578 924.812 227.172 922.125C227.797 919.438 228.75 917.062 230.031 915C231.312 912.906 232.938 911.281 234.906 910.125C236.906 908.938 239.281 908.344 242.031 908.344C242.656 908.344 243.375 908.422 244.188 908.578C245 908.703 245.562 908.844 245.875 909ZM268.984 954.75L283.094 909.281H292.375L272.031 967.828C271.562 969.078 270.938 970.422 270.156 971.859C269.406 973.328 268.438 974.719 267.25 976.031C266.062 977.344 264.625 978.406 262.938 979.219C261.281 980.062 259.297 980.484 256.984 980.484C256.297 980.484 255.422 980.391 254.359 980.203C253.297 980.016 252.547 979.859 252.109 979.734L252.062 972.703C252.312 972.734 252.703 972.766 253.234 972.797C253.797 972.859 254.188 972.891 254.406 972.891C256.375 972.891 258.047 972.625 259.422 972.094C260.797 971.594 261.953 970.734 262.891 969.516C263.859 968.328 264.688 966.688 265.375 964.594L268.984 954.75ZM258.625 909.281L271.797 948.656L274.047 957.797L267.812 960.984L249.156 909.281H258.625ZM336.953 960H328.281V903.938C328.281 900.281 328.938 897.203 330.25 894.703C331.594 892.172 333.516 890.266 336.016 888.984C338.516 887.672 341.484 887.016 344.922 887.016C345.922 887.016 346.922 887.078 347.922 887.203C348.953 887.328 349.953 887.516 350.922 887.766L350.453 894.844C349.797 894.688 349.047 894.578 348.203 894.516C347.391 894.453 346.578 894.422 345.766 894.422C343.922 894.422 342.328 894.797 340.984 895.547C339.672 896.266 338.672 897.328 337.984 898.734C337.297 900.141 336.953 901.875 336.953 903.938V960ZM347.734 909.281V915.938H320.266V909.281H347.734ZM355.094 935.203V934.125C355.094 930.469 355.625 927.078 356.688 923.953C357.75 920.797 359.281 918.062 361.281 915.75C363.281 913.406 365.703 911.594 368.547 910.312C371.391 909 374.578 908.344 378.109 908.344C381.672 908.344 384.875 909 387.719 910.312C390.594 911.594 393.031 913.406 395.031 915.75C397.062 918.062 398.609 920.797 399.672 923.953C400.734 927.078 401.266 930.469 401.266 934.125V935.203C401.266 938.859 400.734 942.25 399.672 945.375C398.609 948.5 397.062 951.234 395.031 953.578C393.031 955.891 390.609 957.703 387.766 959.016C384.953 960.297 381.766 960.938 378.203 960.938C374.641 960.938 371.438 960.297 368.594 959.016C365.75 957.703 363.312 955.891 361.281 953.578C359.281 951.234 357.75 948.5 356.688 945.375C355.625 942.25 355.094 938.859 355.094 935.203ZM363.766 934.125V935.203C363.766 937.734 364.062 940.125 364.656 942.375C365.25 944.594 366.141 946.562 367.328 948.281C368.547 950 370.062 951.359 371.875 952.359C373.688 953.328 375.797 953.812 378.203 953.812C380.578 953.812 382.656 953.328 384.438 952.359C386.25 951.359 387.75 950 388.938 948.281C390.125 946.562 391.016 944.594 391.609 942.375C392.234 940.125 392.547 937.734 392.547 935.203V934.125C392.547 931.625 392.234 929.266 391.609 927.047C391.016 924.797 390.109 922.812 388.891 921.094C387.703 919.344 386.203 917.969 384.391 916.969C382.609 915.969 380.516 915.469 378.109 915.469C375.734 915.469 373.641 915.969 371.828 916.969C370.047 917.969 368.547 919.344 367.328 921.094C366.141 922.812 365.25 924.797 364.656 927.047C364.062 929.266 363.766 931.625 363.766 934.125ZM420.812 917.25V960H412.141V909.281H420.578L420.812 917.25ZM436.656 909L436.609 917.062C435.891 916.906 435.203 916.812 434.547 916.781C433.922 916.719 433.203 916.688 432.391 916.688C430.391 916.688 428.625 917 427.094 917.625C425.562 918.25 424.266 919.125 423.203 920.25C422.141 921.375 421.297 922.719 420.672 924.281C420.078 925.812 419.688 927.5 419.5 929.344L417.062 930.75C417.062 927.688 417.359 924.812 417.953 922.125C418.578 919.438 419.531 917.062 420.812 915C422.094 912.906 423.719 911.281 425.688 910.125C427.688 908.938 430.062 908.344 432.812 908.344C433.438 908.344 434.156 908.422 434.969 908.578C435.781 908.703 436.344 908.844 436.656 909ZM489.719 909.281V915.938H462.297V909.281H489.719ZM471.578 896.953H480.25V947.438C480.25 949.156 480.516 950.453 481.047 951.328C481.578 952.203 482.266 952.781 483.109 953.062C483.953 953.344 484.859 953.484 485.828 953.484C486.547 953.484 487.297 953.422 488.078 953.297C488.891 953.141 489.5 953.016 489.906 952.922L489.953 960C489.266 960.219 488.359 960.422 487.234 960.609C486.141 960.828 484.812 960.938 483.25 960.938C481.125 960.938 479.172 960.516 477.391 959.672C475.609 958.828 474.188 957.422 473.125 955.453C472.094 953.453 471.578 950.766 471.578 947.391V896.953ZM508.562 888V960H499.891V888H508.562ZM506.5 932.719L502.891 932.578C502.922 929.109 503.438 925.906 504.438 922.969C505.438 920 506.844 917.422 508.656 915.234C510.469 913.047 512.625 911.359 515.125 910.172C517.656 908.953 520.453 908.344 523.516 908.344C526.016 908.344 528.266 908.688 530.266 909.375C532.266 910.031 533.969 911.094 535.375 912.562C536.812 914.031 537.906 915.938 538.656 918.281C539.406 920.594 539.781 923.422 539.781 926.766V960H531.062V926.672C531.062 924.016 530.672 921.891 529.891 920.297C529.109 918.672 527.969 917.5 526.469 916.781C524.969 916.031 523.125 915.656 520.938 915.656C518.781 915.656 516.812 916.109 515.031 917.016C513.281 917.922 511.766 919.172 510.484 920.766C509.234 922.359 508.25 924.188 507.531 926.25C506.844 928.281 506.5 930.438 506.5 932.719ZM573.812 960.938C570.281 960.938 567.078 960.344 564.203 959.156C561.359 957.938 558.906 956.234 556.844 954.047C554.812 951.859 553.25 949.266 552.156 946.266C551.062 943.266 550.516 939.984 550.516 936.422V934.453C550.516 930.328 551.125 926.656 552.344 923.438C553.562 920.188 555.219 917.438 557.312 915.188C559.406 912.938 561.781 911.234 564.438 910.078C567.094 908.922 569.844 908.344 572.688 908.344C576.312 908.344 579.438 908.969 582.062 910.219C584.719 911.469 586.891 913.219 588.578 915.469C590.266 917.688 591.516 920.312 592.328 923.344C593.141 926.344 593.547 929.625 593.547 933.188V937.078H555.672V930H584.875V929.344C584.75 927.094 584.281 924.906 583.469 922.781C582.688 920.656 581.438 918.906 579.719 917.531C578 916.156 575.656 915.469 572.688 915.469C570.719 915.469 568.906 915.891 567.25 916.734C565.594 917.547 564.172 918.766 562.984 920.391C561.797 922.016 560.875 924 560.219 926.344C559.562 928.688 559.234 931.391 559.234 934.453V936.422C559.234 938.828 559.562 941.094 560.219 943.219C560.906 945.312 561.891 947.156 563.172 948.75C564.484 950.344 566.062 951.594 567.906 952.5C569.781 953.406 571.906 953.859 574.281 953.859C577.344 953.859 579.938 953.234 582.062 951.984C584.188 950.734 586.047 949.062 587.641 946.969L592.891 951.141C591.797 952.797 590.406 954.375 588.719 955.875C587.031 957.375 584.953 958.594 582.484 959.531C580.047 960.469 577.156 960.938 573.812 960.938ZM636.906 909.281V960H628.188V909.281H636.906ZM627.531 895.828C627.531 894.422 627.953 893.234 628.797 892.266C629.672 891.297 630.953 890.812 632.641 890.812C634.297 890.812 635.562 891.297 636.438 892.266C637.344 893.234 637.797 894.422 637.797 895.828C637.797 897.172 637.344 898.328 636.438 899.297C635.562 900.234 634.297 900.703 632.641 900.703C630.953 900.703 629.672 900.234 628.797 899.297C627.953 898.328 627.531 897.172 627.531 895.828ZM659.5 920.109V960H650.828V909.281H659.031L659.5 920.109ZM657.438 932.719L653.828 932.578C653.859 929.109 654.375 925.906 655.375 922.969C656.375 920 657.781 917.422 659.594 915.234C661.406 913.047 663.562 911.359 666.062 910.172C668.594 908.953 671.391 908.344 674.453 908.344C676.953 908.344 679.203 908.688 681.203 909.375C683.203 910.031 684.906 911.094 686.312 912.562C687.75 914.031 688.844 915.938 689.594 918.281C690.344 920.594 690.719 923.422 690.719 926.766V960H682V926.672C682 924.016 681.609 921.891 680.828 920.297C680.047 918.672 678.906 917.5 677.406 916.781C675.906 916.031 674.062 915.656 671.875 915.656C669.719 915.656 667.75 916.109 665.969 917.016C664.219 917.922 662.703 919.172 661.422 920.766C660.172 922.359 659.188 924.188 658.469 926.25C657.781 928.281 657.438 930.438 657.438 932.719ZM724.188 953.812C726.25 953.812 728.156 953.391 729.906 952.547C731.656 951.703 733.094 950.547 734.219 949.078C735.344 947.578 735.984 945.875 736.141 943.969H744.391C744.234 946.969 743.219 949.766 741.344 952.359C739.5 954.922 737.078 957 734.078 958.594C731.078 960.156 727.781 960.938 724.188 960.938C720.375 960.938 717.047 960.266 714.203 958.922C711.391 957.578 709.047 955.734 707.172 953.391C705.328 951.047 703.938 948.359 703 945.328C702.094 942.266 701.641 939.031 701.641 935.625V933.656C701.641 930.25 702.094 927.031 703 924C703.938 920.938 705.328 918.234 707.172 915.891C709.047 913.547 711.391 911.703 714.203 910.359C717.047 909.016 720.375 908.344 724.188 908.344C728.156 908.344 731.625 909.156 734.594 910.781C737.562 912.375 739.891 914.562 741.578 917.344C743.297 920.094 744.234 923.219 744.391 926.719H736.141C735.984 924.625 735.391 922.734 734.359 921.047C733.359 919.359 731.984 918.016 730.234 917.016C728.516 915.984 726.5 915.469 724.188 915.469C721.531 915.469 719.297 916 717.484 917.062C715.703 918.094 714.281 919.5 713.219 921.281C712.188 923.031 711.438 924.984 710.969 927.141C710.531 929.266 710.312 931.438 710.312 933.656V935.625C710.312 937.844 710.531 940.031 710.969 942.188C711.406 944.344 712.141 946.297 713.172 948.047C714.234 949.797 715.656 951.203 717.438 952.266C719.25 953.297 721.5 953.812 724.188 953.812ZM751.844 935.203V934.125C751.844 930.469 752.375 927.078 753.438 923.953C754.5 920.797 756.031 918.062 758.031 915.75C760.031 913.406 762.453 911.594 765.297 910.312C768.141 909 771.328 908.344 774.859 908.344C778.422 908.344 781.625 909 784.469 910.312C787.344 911.594 789.781 913.406 791.781 915.75C793.812 918.062 795.359 920.797 796.422 923.953C797.484 927.078 798.016 930.469 798.016 934.125V935.203C798.016 938.859 797.484 942.25 796.422 945.375C795.359 948.5 793.812 951.234 791.781 953.578C789.781 955.891 787.359 957.703 784.516 959.016C781.703 960.297 778.516 960.938 774.953 960.938C771.391 960.938 768.188 960.297 765.344 959.016C762.5 957.703 760.062 955.891 758.031 953.578C756.031 951.234 754.5 948.5 753.438 945.375C752.375 942.25 751.844 938.859 751.844 935.203ZM760.516 934.125V935.203C760.516 937.734 760.812 940.125 761.406 942.375C762 944.594 762.891 946.562 764.078 948.281C765.297 950 766.812 951.359 768.625 952.359C770.438 953.328 772.547 953.812 774.953 953.812C777.328 953.812 779.406 953.328 781.188 952.359C783 951.359 784.5 950 785.688 948.281C786.875 946.562 787.766 944.594 788.359 942.375C788.984 940.125 789.297 937.734 789.297 935.203V934.125C789.297 931.625 788.984 929.266 788.359 927.047C787.766 924.797 786.859 922.812 785.641 921.094C784.453 919.344 782.953 917.969 781.141 916.969C779.359 915.969 777.266 915.469 774.859 915.469C772.484 915.469 770.391 915.969 768.578 916.969C766.797 917.969 765.297 919.344 764.078 921.094C762.891 922.812 762 924.797 761.406 927.047C760.812 929.266 760.516 931.625 760.516 934.125ZM817.562 920.109V960H808.891V909.281H817.094L817.562 920.109ZM815.5 932.719L811.891 932.578C811.922 929.109 812.438 925.906 813.438 922.969C814.438 920 815.844 917.422 817.656 915.234C819.469 913.047 821.625 911.359 824.125 910.172C826.656 908.953 829.453 908.344 832.516 908.344C835.016 908.344 837.266 908.688 839.266 909.375C841.266 910.031 842.969 911.094 844.375 912.562C845.812 914.031 846.906 915.938 847.656 918.281C848.406 920.594 848.781 923.422 848.781 926.766V960H840.062V926.672C840.062 924.016 839.672 921.891 838.891 920.297C838.109 918.672 836.969 917.5 835.469 916.781C833.969 916.031 832.125 915.656 829.938 915.656C827.781 915.656 825.812 916.109 824.031 917.016C822.281 917.922 820.766 919.172 819.484 920.766C818.234 922.359 817.25 924.188 816.531 926.25C815.844 928.281 815.5 930.438 815.5 932.719ZM877.375 952.172L891.25 909.281H900.109L881.875 960H876.062L877.375 952.172ZM865.797 909.281L880.094 952.406L881.078 960H875.266L856.891 909.281H865.797ZM928.844 960.938C925.312 960.938 922.109 960.344 919.234 959.156C916.391 957.938 913.938 956.234 911.875 954.047C909.844 951.859 908.281 949.266 907.188 946.266C906.094 943.266 905.547 939.984 905.547 936.422V934.453C905.547 930.328 906.156 926.656 907.375 923.438C908.594 920.188 910.25 917.438 912.344 915.188C914.438 912.938 916.812 911.234 919.469 910.078C922.125 908.922 924.875 908.344 927.719 908.344C931.344 908.344 934.469 908.969 937.094 910.219C939.75 911.469 941.922 913.219 943.609 915.469C945.297 917.688 946.547 920.312 947.359 923.344C948.172 926.344 948.578 929.625 948.578 933.188V937.078H910.703V930H939.906V929.344C939.781 927.094 939.312 924.906 938.5 922.781C937.719 920.656 936.469 918.906 934.75 917.531C933.031 916.156 930.688 915.469 927.719 915.469C925.75 915.469 923.938 915.891 922.281 916.734C920.625 917.547 919.203 918.766 918.016 920.391C916.828 922.016 915.906 924 915.25 926.344C914.594 928.688 914.266 931.391 914.266 934.453V936.422C914.266 938.828 914.594 941.094 915.25 943.219C915.938 945.312 916.922 947.156 918.203 948.75C919.516 950.344 921.094 951.594 922.938 952.5C924.812 953.406 926.938 953.859 929.312 953.859C932.375 953.859 934.969 953.234 937.094 951.984C939.219 950.734 941.078 949.062 942.672 946.969L947.922 951.141C946.828 952.797 945.438 954.375 943.75 955.875C942.062 957.375 939.984 958.594 937.516 959.531C935.078 960.469 932.188 960.938 928.844 960.938ZM967.375 920.109V960H958.703V909.281H966.906L967.375 920.109ZM965.312 932.719L961.703 932.578C961.734 929.109 962.25 925.906 963.25 922.969C964.25 920 965.656 917.422 967.469 915.234C969.281 913.047 971.438 911.359 973.938 910.172C976.469 908.953 979.266 908.344 982.328 908.344C984.828 908.344 987.078 908.688 989.078 909.375C991.078 910.031 992.781 911.094 994.188 912.562C995.625 914.031 996.719 915.938 997.469 918.281C998.219 920.594 998.594 923.422 998.594 926.766V960H989.875V926.672C989.875 924.016 989.484 921.891 988.703 920.297C987.922 918.672 986.781 917.5 985.281 916.781C983.781 916.031 981.938 915.656 979.75 915.656C977.594 915.656 975.625 916.109 973.844 917.016C972.094 917.922 970.578 919.172 969.297 920.766C968.047 922.359 967.062 924.188 966.344 926.25C965.656 928.281 965.312 930.438 965.312 932.719ZM1021.19 909.281V960H1012.47V909.281H1021.19ZM1011.81 895.828C1011.81 894.422 1012.23 893.234 1013.08 892.266C1013.95 891.297 1015.23 890.812 1016.92 890.812C1018.58 890.812 1019.84 891.297 1020.72 892.266C1021.62 893.234 1022.08 894.422 1022.08 895.828C1022.08 897.172 1021.62 898.328 1020.72 899.297C1019.84 900.234 1018.58 900.703 1016.92 900.703C1015.23 900.703 1013.95 900.234 1013.08 899.297C1012.23 898.328 1011.81 897.172 1011.81 895.828ZM1056.16 960.938C1052.62 960.938 1049.42 960.344 1046.55 959.156C1043.7 957.938 1041.25 956.234 1039.19 954.047C1037.16 951.859 1035.59 949.266 1034.5 946.266C1033.41 943.266 1032.86 939.984 1032.86 936.422V934.453C1032.86 930.328 1033.47 926.656 1034.69 923.438C1035.91 920.188 1037.56 917.438 1039.66 915.188C1041.75 912.938 1044.12 911.234 1046.78 910.078C1049.44 908.922 1052.19 908.344 1055.03 908.344C1058.66 908.344 1061.78 908.969 1064.41 910.219C1067.06 911.469 1069.23 913.219 1070.92 915.469C1072.61 917.688 1073.86 920.312 1074.67 923.344C1075.48 926.344 1075.89 929.625 1075.89 933.188V937.078H1038.02V930H1067.22V929.344C1067.09 927.094 1066.62 924.906 1065.81 922.781C1065.03 920.656 1063.78 918.906 1062.06 917.531C1060.34 916.156 1058 915.469 1055.03 915.469C1053.06 915.469 1051.25 915.891 1049.59 916.734C1047.94 917.547 1046.52 918.766 1045.33 920.391C1044.14 922.016 1043.22 924 1042.56 926.344C1041.91 928.688 1041.58 931.391 1041.58 934.453V936.422C1041.58 938.828 1041.91 941.094 1042.56 943.219C1043.25 945.312 1044.23 947.156 1045.52 948.75C1046.83 950.344 1048.41 951.594 1050.25 952.5C1052.12 953.406 1054.25 953.859 1056.62 953.859C1059.69 953.859 1062.28 953.234 1064.41 951.984C1066.53 950.734 1068.39 949.062 1069.98 946.969L1075.23 951.141C1074.14 952.797 1072.75 954.375 1071.06 955.875C1069.38 957.375 1067.3 958.594 1064.83 959.531C1062.39 960.469 1059.5 960.938 1056.16 960.938ZM1094.69 920.109V960H1086.02V909.281H1094.22L1094.69 920.109ZM1092.62 932.719L1089.02 932.578C1089.05 929.109 1089.56 925.906 1090.56 922.969C1091.56 920 1092.97 917.422 1094.78 915.234C1096.59 913.047 1098.75 911.359 1101.25 910.172C1103.78 908.953 1106.58 908.344 1109.64 908.344C1112.14 908.344 1114.39 908.688 1116.39 909.375C1118.39 910.031 1120.09 911.094 1121.5 912.562C1122.94 914.031 1124.03 915.938 1124.78 918.281C1125.53 920.594 1125.91 923.422 1125.91 926.766V960H1117.19V926.672C1117.19 924.016 1116.8 921.891 1116.02 920.297C1115.23 918.672 1114.09 917.5 1112.59 916.781C1111.09 916.031 1109.25 915.656 1107.06 915.656C1104.91 915.656 1102.94 916.109 1101.16 917.016C1099.41 917.922 1097.89 919.172 1096.61 920.766C1095.36 922.359 1094.38 924.188 1093.66 926.25C1092.97 928.281 1092.62 930.438 1092.62 932.719ZM1159.38 953.812C1161.44 953.812 1163.34 953.391 1165.09 952.547C1166.84 951.703 1168.28 950.547 1169.41 949.078C1170.53 947.578 1171.17 945.875 1171.33 943.969H1179.58C1179.42 946.969 1178.41 949.766 1176.53 952.359C1174.69 954.922 1172.27 957 1169.27 958.594C1166.27 960.156 1162.97 960.938 1159.38 960.938C1155.56 960.938 1152.23 960.266 1149.39 958.922C1146.58 957.578 1144.23 955.734 1142.36 953.391C1140.52 951.047 1139.12 948.359 1138.19 945.328C1137.28 942.266 1136.83 939.031 1136.83 935.625V933.656C1136.83 930.25 1137.28 927.031 1138.19 924C1139.12 920.938 1140.52 918.234 1142.36 915.891C1144.23 913.547 1146.58 911.703 1149.39 910.359C1152.23 909.016 1155.56 908.344 1159.38 908.344C1163.34 908.344 1166.81 909.156 1169.78 910.781C1172.75 912.375 1175.08 914.562 1176.77 917.344C1178.48 920.094 1179.42 923.219 1179.58 926.719H1171.33C1171.17 924.625 1170.58 922.734 1169.55 921.047C1168.55 919.359 1167.17 918.016 1165.42 917.016C1163.7 915.984 1161.69 915.469 1159.38 915.469C1156.72 915.469 1154.48 916 1152.67 917.062C1150.89 918.094 1149.47 919.5 1148.41 921.281C1147.38 923.031 1146.62 924.984 1146.16 927.141C1145.72 929.266 1145.5 931.438 1145.5 933.656V935.625C1145.5 937.844 1145.72 940.031 1146.16 942.188C1146.59 944.344 1147.33 946.297 1148.36 948.047C1149.42 949.797 1150.84 951.203 1152.62 952.266C1154.44 953.297 1156.69 953.812 1159.38 953.812ZM1210.38 960.938C1206.84 960.938 1203.64 960.344 1200.77 959.156C1197.92 957.938 1195.47 956.234 1193.41 954.047C1191.38 951.859 1189.81 949.266 1188.72 946.266C1187.62 943.266 1187.08 939.984 1187.08 936.422V934.453C1187.08 930.328 1187.69 926.656 1188.91 923.438C1190.12 920.188 1191.78 917.438 1193.88 915.188C1195.97 912.938 1198.34 911.234 1201 910.078C1203.66 908.922 1206.41 908.344 1209.25 908.344C1212.88 908.344 1216 908.969 1218.62 910.219C1221.28 911.469 1223.45 913.219 1225.14 915.469C1226.83 917.688 1228.08 920.312 1228.89 923.344C1229.7 926.344 1230.11 929.625 1230.11 933.188V937.078H1192.23V930H1221.44V929.344C1221.31 927.094 1220.84 924.906 1220.03 922.781C1219.25 920.656 1218 918.906 1216.28 917.531C1214.56 916.156 1212.22 915.469 1209.25 915.469C1207.28 915.469 1205.47 915.891 1203.81 916.734C1202.16 917.547 1200.73 918.766 1199.55 920.391C1198.36 922.016 1197.44 924 1196.78 926.344C1196.12 928.688 1195.8 931.391 1195.8 934.453V936.422C1195.8 938.828 1196.12 941.094 1196.78 943.219C1197.47 945.312 1198.45 947.156 1199.73 948.75C1201.05 950.344 1202.62 951.594 1204.47 952.5C1206.34 953.406 1208.47 953.859 1210.84 953.859C1213.91 953.859 1216.5 953.234 1218.62 951.984C1220.75 950.734 1222.61 949.062 1224.2 946.969L1229.45 951.141C1228.36 952.797 1226.97 954.375 1225.28 955.875C1223.59 957.375 1221.52 958.594 1219.05 959.531C1216.61 960.469 1213.72 960.938 1210.38 960.938ZM1248.11 949.688V956.672C1248.11 959.516 1247.39 962.516 1245.95 965.672C1244.52 968.859 1242.5 971.516 1239.91 973.641L1234.98 970.219C1235.98 968.844 1236.83 967.438 1237.52 966C1238.2 964.594 1238.72 963.125 1239.06 961.594C1239.44 960.094 1239.62 958.5 1239.62 956.812V949.688H1248.11ZM1302.25 939.375L1315.8 891.75H1322.36L1318.56 910.266L1303.98 960H1297.47L1302.25 939.375ZM1288.23 891.75L1299.02 938.438L1302.25 960H1295.78L1279.23 891.75H1288.23ZM1339.89 938.391L1350.44 891.75H1359.48L1342.98 960H1336.52L1339.89 938.391ZM1323.34 891.75L1336.52 939.375L1341.3 960H1334.78L1320.72 910.266L1316.88 891.75H1323.34ZM1387.75 960.938C1384.22 960.938 1381.02 960.344 1378.14 959.156C1375.3 957.938 1372.84 956.234 1370.78 954.047C1368.75 951.859 1367.19 949.266 1366.09 946.266C1365 943.266 1364.45 939.984 1364.45 936.422V934.453C1364.45 930.328 1365.06 926.656 1366.28 923.438C1367.5 920.188 1369.16 917.438 1371.25 915.188C1373.34 912.938 1375.72 911.234 1378.38 910.078C1381.03 908.922 1383.78 908.344 1386.62 908.344C1390.25 908.344 1393.38 908.969 1396 910.219C1398.66 911.469 1400.83 913.219 1402.52 915.469C1404.2 917.688 1405.45 920.312 1406.27 923.344C1407.08 926.344 1407.48 929.625 1407.48 933.188V937.078H1369.61V930H1398.81V929.344C1398.69 927.094 1398.22 924.906 1397.41 922.781C1396.62 920.656 1395.38 918.906 1393.66 917.531C1391.94 916.156 1389.59 915.469 1386.62 915.469C1384.66 915.469 1382.84 915.891 1381.19 916.734C1379.53 917.547 1378.11 918.766 1376.92 920.391C1375.73 922.016 1374.81 924 1374.16 926.344C1373.5 928.688 1373.17 931.391 1373.17 934.453V936.422C1373.17 938.828 1373.5 941.094 1374.16 943.219C1374.84 945.312 1375.83 947.156 1377.11 948.75C1378.42 950.344 1380 951.594 1381.84 952.5C1383.72 953.406 1385.84 953.859 1388.22 953.859C1391.28 953.859 1393.88 953.234 1396 951.984C1398.12 950.734 1399.98 949.062 1401.58 946.969L1406.83 951.141C1405.73 952.797 1404.34 954.375 1402.66 955.875C1400.97 957.375 1398.89 958.594 1396.42 959.531C1393.98 960.469 1391.09 960.938 1387.75 960.938ZM1473.39 950.156V888H1482.11V960H1474.14L1473.39 950.156ZM1439.27 935.203V934.219C1439.27 930.344 1439.73 926.828 1440.67 923.672C1441.64 920.484 1443 917.75 1444.75 915.469C1446.53 913.188 1448.64 911.438 1451.08 910.219C1453.55 908.969 1456.3 908.344 1459.33 908.344C1462.52 908.344 1465.3 908.906 1467.67 910.031C1470.08 911.125 1472.11 912.734 1473.77 914.859C1475.45 916.953 1476.78 919.484 1477.75 922.453C1478.72 925.422 1479.39 928.781 1479.77 932.531V936.844C1479.42 940.562 1478.75 943.906 1477.75 946.875C1476.78 949.844 1475.45 952.375 1473.77 954.469C1472.11 956.562 1470.08 958.172 1467.67 959.297C1465.27 960.391 1462.45 960.938 1459.23 960.938C1456.27 960.938 1453.55 960.297 1451.08 959.016C1448.64 957.734 1446.53 955.938 1444.75 953.625C1443 951.312 1441.64 948.594 1440.67 945.469C1439.73 942.312 1439.27 938.891 1439.27 935.203ZM1447.98 934.219V935.203C1447.98 937.734 1448.23 940.109 1448.73 942.328C1449.27 944.547 1450.08 946.5 1451.17 948.188C1452.27 949.875 1453.66 951.203 1455.34 952.172C1457.03 953.109 1459.05 953.578 1461.39 953.578C1464.27 953.578 1466.62 952.969 1468.47 951.75C1470.34 950.531 1471.84 948.922 1472.97 946.922C1474.09 944.922 1474.97 942.75 1475.59 940.406V929.109C1475.22 927.391 1474.67 925.734 1473.95 924.141C1473.27 922.516 1472.36 921.078 1471.23 919.828C1470.14 918.547 1468.78 917.531 1467.16 916.781C1465.56 916.031 1463.67 915.656 1461.48 915.656C1459.11 915.656 1457.06 916.156 1455.34 917.156C1453.66 918.125 1452.27 919.469 1451.17 921.188C1450.08 922.875 1449.27 924.844 1448.73 927.094C1448.23 929.312 1447.98 931.688 1447.98 934.219ZM1505.03 909.281V960H1496.31V909.281H1505.03ZM1495.66 895.828C1495.66 894.422 1496.08 893.234 1496.92 892.266C1497.8 891.297 1499.08 890.812 1500.77 890.812C1502.42 890.812 1503.69 891.297 1504.56 892.266C1505.47 893.234 1505.92 894.422 1505.92 895.828C1505.92 897.172 1505.47 898.328 1504.56 899.297C1503.69 900.234 1502.42 900.703 1500.77 900.703C1499.08 900.703 1497.8 900.234 1496.92 899.297C1496.08 898.328 1495.66 897.172 1495.66 895.828ZM1550.92 950.156V888H1559.64V960H1551.67L1550.92 950.156ZM1516.8 935.203V934.219C1516.8 930.344 1517.27 926.828 1518.2 923.672C1519.17 920.484 1520.53 917.75 1522.28 915.469C1524.06 913.188 1526.17 911.438 1528.61 910.219C1531.08 908.969 1533.83 908.344 1536.86 908.344C1540.05 908.344 1542.83 908.906 1545.2 910.031C1547.61 911.125 1549.64 912.734 1551.3 914.859C1552.98 916.953 1554.31 919.484 1555.28 922.453C1556.25 925.422 1556.92 928.781 1557.3 932.531V936.844C1556.95 940.562 1556.28 943.906 1555.28 946.875C1554.31 949.844 1552.98 952.375 1551.3 954.469C1549.64 956.562 1547.61 958.172 1545.2 959.297C1542.8 960.391 1539.98 960.938 1536.77 960.938C1533.8 960.938 1531.08 960.297 1528.61 959.016C1526.17 957.734 1524.06 955.938 1522.28 953.625C1520.53 951.312 1519.17 948.594 1518.2 945.469C1517.27 942.312 1516.8 938.891 1516.8 935.203ZM1525.52 934.219V935.203C1525.52 937.734 1525.77 940.109 1526.27 942.328C1526.8 944.547 1527.61 946.5 1528.7 948.188C1529.8 949.875 1531.19 951.203 1532.88 952.172C1534.56 953.109 1536.58 953.578 1538.92 953.578C1541.8 953.578 1544.16 952.969 1546 951.75C1547.88 950.531 1549.38 948.922 1550.5 946.922C1551.62 944.922 1552.5 942.75 1553.12 940.406V929.109C1552.75 927.391 1552.2 925.734 1551.48 924.141C1550.8 922.516 1549.89 921.078 1548.77 919.828C1547.67 918.547 1546.31 917.531 1544.69 916.781C1543.09 916.031 1541.2 915.656 1539.02 915.656C1536.64 915.656 1534.59 916.156 1532.88 917.156C1531.19 918.125 1529.8 919.469 1528.7 921.188C1527.61 922.875 1526.8 924.844 1526.27 927.094C1525.77 929.312 1525.52 931.688 1525.52 934.219ZM180.484 1033.11V1073H171.812V1022.28H180.016L180.484 1033.11ZM178.422 1045.72L174.812 1045.58C174.844 1042.11 175.359 1038.91 176.359 1035.97C177.359 1033 178.766 1030.42 180.578 1028.23C182.391 1026.05 184.547 1024.36 187.047 1023.17C189.578 1021.95 192.375 1021.34 195.438 1021.34C197.938 1021.34 200.188 1021.69 202.188 1022.38C204.188 1023.03 205.891 1024.09 207.297 1025.56C208.734 1027.03 209.828 1028.94 210.578 1031.28C211.328 1033.59 211.703 1036.42 211.703 1039.77V1073H202.984V1039.67C202.984 1037.02 202.594 1034.89 201.812 1033.3C201.031 1031.67 199.891 1030.5 198.391 1029.78C196.891 1029.03 195.047 1028.66 192.859 1028.66C190.703 1028.66 188.734 1029.11 186.953 1030.02C185.203 1030.92 183.688 1032.17 182.406 1033.77C181.156 1035.36 180.172 1037.19 179.453 1039.25C178.766 1041.28 178.422 1043.44 178.422 1045.72ZM222.578 1048.2V1047.12C222.578 1043.47 223.109 1040.08 224.172 1036.95C225.234 1033.8 226.766 1031.06 228.766 1028.75C230.766 1026.41 233.188 1024.59 236.031 1023.31C238.875 1022 242.062 1021.34 245.594 1021.34C249.156 1021.34 252.359 1022 255.203 1023.31C258.078 1024.59 260.516 1026.41 262.516 1028.75C264.547 1031.06 266.094 1033.8 267.156 1036.95C268.219 1040.08 268.75 1043.47 268.75 1047.12V1048.2C268.75 1051.86 268.219 1055.25 267.156 1058.38C266.094 1061.5 264.547 1064.23 262.516 1066.58C260.516 1068.89 258.094 1070.7 255.25 1072.02C252.438 1073.3 249.25 1073.94 245.688 1073.94C242.125 1073.94 238.922 1073.3 236.078 1072.02C233.234 1070.7 230.797 1068.89 228.766 1066.58C226.766 1064.23 225.234 1061.5 224.172 1058.38C223.109 1055.25 222.578 1051.86 222.578 1048.2ZM231.25 1047.12V1048.2C231.25 1050.73 231.547 1053.12 232.141 1055.38C232.734 1057.59 233.625 1059.56 234.812 1061.28C236.031 1063 237.547 1064.36 239.359 1065.36C241.172 1066.33 243.281 1066.81 245.688 1066.81C248.062 1066.81 250.141 1066.33 251.922 1065.36C253.734 1064.36 255.234 1063 256.422 1061.28C257.609 1059.56 258.5 1057.59 259.094 1055.38C259.719 1053.12 260.031 1050.73 260.031 1048.2V1047.12C260.031 1044.62 259.719 1042.27 259.094 1040.05C258.5 1037.8 257.594 1035.81 256.375 1034.09C255.188 1032.34 253.688 1030.97 251.875 1029.97C250.094 1028.97 248 1028.47 245.594 1028.47C243.219 1028.47 241.125 1028.97 239.312 1029.97C237.531 1030.97 236.031 1032.34 234.812 1034.09C233.625 1035.81 232.734 1037.8 232.141 1040.05C231.547 1042.27 231.25 1044.62 231.25 1047.12ZM300.859 1022.28V1028.94H273.438V1022.28H300.859ZM282.719 1009.95H291.391V1060.44C291.391 1062.16 291.656 1063.45 292.188 1064.33C292.719 1065.2 293.406 1065.78 294.25 1066.06C295.094 1066.34 296 1066.48 296.969 1066.48C297.688 1066.48 298.438 1066.42 299.219 1066.3C300.031 1066.14 300.641 1066.02 301.047 1065.92L301.094 1073C300.406 1073.22 299.5 1073.42 298.375 1073.61C297.281 1073.83 295.953 1073.94 294.391 1073.94C292.266 1073.94 290.312 1073.52 288.531 1072.67C286.75 1071.83 285.328 1070.42 284.266 1068.45C283.234 1066.45 282.719 1063.77 282.719 1060.39V1009.95ZM346.422 1073H337.75V1017.88C337.75 1014.03 338.5 1010.78 340 1008.12C341.5 1005.47 343.641 1003.45 346.422 1002.08C349.203 1000.7 352.5 1000.02 356.312 1000.02C358.562 1000.02 360.766 1000.3 362.922 1000.86C365.078 1001.39 367.297 1002.06 369.578 1002.88L368.125 1010.19C366.688 1009.62 365.016 1009.09 363.109 1008.59C361.234 1008.06 359.172 1007.8 356.922 1007.8C353.203 1007.8 350.516 1008.64 348.859 1010.33C347.234 1011.98 346.422 1014.5 346.422 1017.88V1073ZM356.781 1022.28V1028.94H329.734V1022.28H356.781ZM373.844 1022.28V1073H365.172V1022.28H373.844ZM396.766 1033.11V1073H388.094V1022.28H396.297L396.766 1033.11ZM394.703 1045.72L391.094 1045.58C391.125 1042.11 391.641 1038.91 392.641 1035.97C393.641 1033 395.047 1030.42 396.859 1028.23C398.672 1026.05 400.828 1024.36 403.328 1023.17C405.859 1021.95 408.656 1021.34 411.719 1021.34C414.219 1021.34 416.469 1021.69 418.469 1022.38C420.469 1023.03 422.172 1024.09 423.578 1025.56C425.016 1027.03 426.109 1028.94 426.859 1031.28C427.609 1033.59 427.984 1036.42 427.984 1039.77V1073H419.266V1039.67C419.266 1037.02 418.875 1034.89 418.094 1033.3C417.312 1031.67 416.172 1030.5 414.672 1029.78C413.172 1029.03 411.328 1028.66 409.141 1028.66C406.984 1028.66 405.016 1029.11 403.234 1030.02C401.484 1030.92 399.969 1032.17 398.688 1033.77C397.438 1035.36 396.453 1037.19 395.734 1039.25C395.047 1041.28 394.703 1043.44 394.703 1045.72ZM473.125 1063.16V1001H481.844V1073H473.875L473.125 1063.16ZM439 1048.2V1047.22C439 1043.34 439.469 1039.83 440.406 1036.67C441.375 1033.48 442.734 1030.75 444.484 1028.47C446.266 1026.19 448.375 1024.44 450.812 1023.22C453.281 1021.97 456.031 1021.34 459.062 1021.34C462.25 1021.34 465.031 1021.91 467.406 1023.03C469.812 1024.12 471.844 1025.73 473.5 1027.86C475.188 1029.95 476.516 1032.48 477.484 1035.45C478.453 1038.42 479.125 1041.78 479.5 1045.53V1049.84C479.156 1053.56 478.484 1056.91 477.484 1059.88C476.516 1062.84 475.188 1065.38 473.5 1067.47C471.844 1069.56 469.812 1071.17 467.406 1072.3C465 1073.39 462.188 1073.94 458.969 1073.94C456 1073.94 453.281 1073.3 450.812 1072.02C448.375 1070.73 446.266 1068.94 444.484 1066.62C442.734 1064.31 441.375 1061.59 440.406 1058.47C439.469 1055.31 439 1051.89 439 1048.2ZM447.719 1047.22V1048.2C447.719 1050.73 447.969 1053.11 448.469 1055.33C449 1057.55 449.812 1059.5 450.906 1061.19C452 1062.88 453.391 1064.2 455.078 1065.17C456.766 1066.11 458.781 1066.58 461.125 1066.58C464 1066.58 466.359 1065.97 468.203 1064.75C470.078 1063.53 471.578 1061.92 472.703 1059.92C473.828 1057.92 474.703 1055.75 475.328 1053.41V1042.11C474.953 1040.39 474.406 1038.73 473.688 1037.14C473 1035.52 472.094 1034.08 470.969 1032.83C469.875 1031.55 468.516 1030.53 466.891 1029.78C465.297 1029.03 463.406 1028.66 461.219 1028.66C458.844 1028.66 456.797 1029.16 455.078 1030.16C453.391 1031.12 452 1032.47 450.906 1034.19C449.812 1035.88 449 1037.84 448.469 1040.09C447.969 1042.31 447.719 1044.69 447.719 1047.22ZM549.062 1064.33V1038.22C549.062 1036.22 548.656 1034.48 547.844 1033.02C547.062 1031.52 545.875 1030.36 544.281 1029.55C542.688 1028.73 540.719 1028.33 538.375 1028.33C536.188 1028.33 534.266 1028.7 532.609 1029.45C530.984 1030.2 529.703 1031.19 528.766 1032.41C527.859 1033.62 527.406 1034.94 527.406 1036.34H518.734C518.734 1034.53 519.203 1032.73 520.141 1030.95C521.078 1029.17 522.422 1027.56 524.172 1026.12C525.953 1024.66 528.078 1023.5 530.547 1022.66C533.047 1021.78 535.828 1021.34 538.891 1021.34C542.578 1021.34 545.828 1021.97 548.641 1023.22C551.484 1024.47 553.703 1026.36 555.297 1028.89C556.922 1031.39 557.734 1034.53 557.734 1038.31V1061.94C557.734 1063.62 557.875 1065.42 558.156 1067.33C558.469 1069.23 558.922 1070.88 559.516 1072.25V1073H550.469C550.031 1072 549.688 1070.67 549.438 1069.02C549.188 1067.33 549.062 1065.77 549.062 1064.33ZM550.562 1042.25L550.656 1048.34H541.891C539.422 1048.34 537.219 1048.55 535.281 1048.95C533.344 1049.33 531.719 1049.91 530.406 1050.69C529.094 1051.47 528.094 1052.45 527.406 1053.64C526.719 1054.8 526.375 1056.16 526.375 1057.72C526.375 1059.31 526.734 1060.77 527.453 1062.08C528.172 1063.39 529.25 1064.44 530.688 1065.22C532.156 1065.97 533.953 1066.34 536.078 1066.34C538.734 1066.34 541.078 1065.78 543.109 1064.66C545.141 1063.53 546.75 1062.16 547.938 1060.53C549.156 1058.91 549.812 1057.33 549.906 1055.8L553.609 1059.97C553.391 1061.28 552.797 1062.73 551.828 1064.33C550.859 1065.92 549.562 1067.45 547.938 1068.92C546.344 1070.36 544.438 1071.56 542.219 1072.53C540.031 1073.47 537.562 1073.94 534.812 1073.94C531.375 1073.94 528.359 1073.27 525.766 1071.92C523.203 1070.58 521.203 1068.78 519.766 1066.53C518.359 1064.25 517.656 1061.7 517.656 1058.89C517.656 1056.17 518.188 1053.78 519.25 1051.72C520.312 1049.62 521.844 1047.89 523.844 1046.52C525.844 1045.11 528.25 1044.05 531.062 1043.33C533.875 1042.61 537.016 1042.25 540.484 1042.25H550.562ZM616.422 1022.28V1028.94H589V1022.28H616.422ZM598.281 1009.95H606.953V1060.44C606.953 1062.16 607.219 1063.45 607.75 1064.33C608.281 1065.2 608.969 1065.78 609.812 1066.06C610.656 1066.34 611.562 1066.48 612.531 1066.48C613.25 1066.48 614 1066.42 614.781 1066.3C615.594 1066.14 616.203 1066.02 616.609 1065.92L616.656 1073C615.969 1073.22 615.062 1073.42 613.938 1073.61C612.844 1073.83 611.516 1073.94 609.953 1073.94C607.828 1073.94 605.875 1073.52 604.094 1072.67C602.312 1071.83 600.891 1070.42 599.828 1068.45C598.797 1066.45 598.281 1063.77 598.281 1060.39V1009.95ZM647.641 1073.94C644.109 1073.94 640.906 1073.34 638.031 1072.16C635.188 1070.94 632.734 1069.23 630.672 1067.05C628.641 1064.86 627.078 1062.27 625.984 1059.27C624.891 1056.27 624.344 1052.98 624.344 1049.42V1047.45C624.344 1043.33 624.953 1039.66 626.172 1036.44C627.391 1033.19 629.047 1030.44 631.141 1028.19C633.234 1025.94 635.609 1024.23 638.266 1023.08C640.922 1021.92 643.672 1021.34 646.516 1021.34C650.141 1021.34 653.266 1021.97 655.891 1023.22C658.547 1024.47 660.719 1026.22 662.406 1028.47C664.094 1030.69 665.344 1033.31 666.156 1036.34C666.969 1039.34 667.375 1042.62 667.375 1046.19V1050.08H629.5V1043H658.703V1042.34C658.578 1040.09 658.109 1037.91 657.297 1035.78C656.516 1033.66 655.266 1031.91 653.547 1030.53C651.828 1029.16 649.484 1028.47 646.516 1028.47C644.547 1028.47 642.734 1028.89 641.078 1029.73C639.422 1030.55 638 1031.77 636.812 1033.39C635.625 1035.02 634.703 1037 634.047 1039.34C633.391 1041.69 633.062 1044.39 633.062 1047.45V1049.42C633.062 1051.83 633.391 1054.09 634.047 1056.22C634.734 1058.31 635.719 1060.16 637 1061.75C638.312 1063.34 639.891 1064.59 641.734 1065.5C643.609 1066.41 645.734 1066.86 648.109 1066.86C651.172 1066.86 653.766 1066.23 655.891 1064.98C658.016 1063.73 659.875 1062.06 661.469 1059.97L666.719 1064.14C665.625 1065.8 664.234 1067.38 662.547 1068.88C660.859 1070.38 658.781 1071.59 656.312 1072.53C653.875 1073.47 650.984 1073.94 647.641 1073.94ZM707.406 1064.33V1038.22C707.406 1036.22 707 1034.48 706.188 1033.02C705.406 1031.52 704.219 1030.36 702.625 1029.55C701.031 1028.73 699.062 1028.33 696.719 1028.33C694.531 1028.33 692.609 1028.7 690.953 1029.45C689.328 1030.2 688.047 1031.19 687.109 1032.41C686.203 1033.62 685.75 1034.94 685.75 1036.34H677.078C677.078 1034.53 677.547 1032.73 678.484 1030.95C679.422 1029.17 680.766 1027.56 682.516 1026.12C684.297 1024.66 686.422 1023.5 688.891 1022.66C691.391 1021.78 694.172 1021.34 697.234 1021.34C700.922 1021.34 704.172 1021.97 706.984 1023.22C709.828 1024.47 712.047 1026.36 713.641 1028.89C715.266 1031.39 716.078 1034.53 716.078 1038.31V1061.94C716.078 1063.62 716.219 1065.42 716.5 1067.33C716.812 1069.23 717.266 1070.88 717.859 1072.25V1073H708.812C708.375 1072 708.031 1070.67 707.781 1069.02C707.531 1067.33 707.406 1065.77 707.406 1064.33ZM708.906 1042.25L709 1048.34H700.234C697.766 1048.34 695.562 1048.55 693.625 1048.95C691.688 1049.33 690.062 1049.91 688.75 1050.69C687.438 1051.47 686.438 1052.45 685.75 1053.64C685.062 1054.8 684.719 1056.16 684.719 1057.72C684.719 1059.31 685.078 1060.77 685.797 1062.08C686.516 1063.39 687.594 1064.44 689.031 1065.22C690.5 1065.97 692.297 1066.34 694.422 1066.34C697.078 1066.34 699.422 1065.78 701.453 1064.66C703.484 1063.53 705.094 1062.16 706.281 1060.53C707.5 1058.91 708.156 1057.33 708.25 1055.8L711.953 1059.97C711.734 1061.28 711.141 1062.73 710.172 1064.33C709.203 1065.92 707.906 1067.45 706.281 1068.92C704.688 1070.36 702.781 1071.56 700.562 1072.53C698.375 1073.47 695.906 1073.94 693.156 1073.94C689.719 1073.94 686.703 1073.27 684.109 1071.92C681.547 1070.58 679.547 1068.78 678.109 1066.53C676.703 1064.25 676 1061.7 676 1058.89C676 1056.17 676.531 1053.78 677.594 1051.72C678.656 1049.62 680.188 1047.89 682.188 1046.52C684.188 1045.11 686.594 1044.05 689.406 1043.33C692.219 1042.61 695.359 1042.25 698.828 1042.25H708.906ZM738.344 1032.36V1073H729.625V1022.28H737.875L738.344 1032.36ZM736.562 1045.72L732.531 1045.58C732.562 1042.11 733.016 1038.91 733.891 1035.97C734.766 1033 736.062 1030.42 737.781 1028.23C739.5 1026.05 741.641 1024.36 744.203 1023.17C746.766 1021.95 749.734 1021.34 753.109 1021.34C755.484 1021.34 757.672 1021.69 759.672 1022.38C761.672 1023.03 763.406 1024.08 764.875 1025.52C766.344 1026.95 767.484 1028.8 768.297 1031.05C769.109 1033.3 769.516 1036.02 769.516 1039.2V1073H760.844V1039.62C760.844 1036.97 760.391 1034.84 759.484 1033.25C758.609 1031.66 757.359 1030.5 755.734 1029.78C754.109 1029.03 752.203 1028.66 750.016 1028.66C747.453 1028.66 745.312 1029.11 743.594 1030.02C741.875 1030.92 740.5 1032.17 739.469 1033.77C738.438 1035.36 737.688 1037.19 737.219 1039.25C736.781 1041.28 736.562 1043.44 736.562 1045.72ZM769.422 1040.94L763.609 1042.72C763.641 1039.94 764.094 1037.27 764.969 1034.7C765.875 1032.14 767.172 1029.86 768.859 1027.86C770.578 1025.86 772.688 1024.28 775.188 1023.12C777.688 1021.94 780.547 1021.34 783.766 1021.34C786.484 1021.34 788.891 1021.7 790.984 1022.42C793.109 1023.14 794.891 1024.25 796.328 1025.75C797.797 1027.22 798.906 1029.11 799.656 1031.42C800.406 1033.73 800.781 1036.48 800.781 1039.67V1073H792.062V1039.58C792.062 1036.73 791.609 1034.53 790.703 1032.97C789.828 1031.38 788.578 1030.27 786.953 1029.64C785.359 1028.98 783.453 1028.66 781.234 1028.66C779.328 1028.66 777.641 1028.98 776.172 1029.64C774.703 1030.3 773.469 1031.2 772.469 1032.36C771.469 1033.48 770.703 1034.78 770.172 1036.25C769.672 1037.72 769.422 1039.28 769.422 1040.94ZM850.656 1073H841.984V1016.94C841.984 1013.28 842.641 1010.2 843.953 1007.7C845.297 1005.17 847.219 1003.27 849.719 1001.98C852.219 1000.67 855.188 1000.02 858.625 1000.02C859.625 1000.02 860.625 1000.08 861.625 1000.2C862.656 1000.33 863.656 1000.52 864.625 1000.77L864.156 1007.84C863.5 1007.69 862.75 1007.58 861.906 1007.52C861.094 1007.45 860.281 1007.42 859.469 1007.42C857.625 1007.42 856.031 1007.8 854.688 1008.55C853.375 1009.27 852.375 1010.33 851.688 1011.73C851 1013.14 850.656 1014.88 850.656 1016.94V1073ZM861.438 1022.28V1028.94H833.969V1022.28H861.438ZM868.797 1048.2V1047.12C868.797 1043.47 869.328 1040.08 870.391 1036.95C871.453 1033.8 872.984 1031.06 874.984 1028.75C876.984 1026.41 879.406 1024.59 882.25 1023.31C885.094 1022 888.281 1021.34 891.812 1021.34C895.375 1021.34 898.578 1022 901.422 1023.31C904.297 1024.59 906.734 1026.41 908.734 1028.75C910.766 1031.06 912.312 1033.8 913.375 1036.95C914.438 1040.08 914.969 1043.47 914.969 1047.12V1048.2C914.969 1051.86 914.438 1055.25 913.375 1058.38C912.312 1061.5 910.766 1064.23 908.734 1066.58C906.734 1068.89 904.312 1070.7 901.469 1072.02C898.656 1073.3 895.469 1073.94 891.906 1073.94C888.344 1073.94 885.141 1073.3 882.297 1072.02C879.453 1070.7 877.016 1068.89 874.984 1066.58C872.984 1064.23 871.453 1061.5 870.391 1058.38C869.328 1055.25 868.797 1051.86 868.797 1048.2ZM877.469 1047.12V1048.2C877.469 1050.73 877.766 1053.12 878.359 1055.38C878.953 1057.59 879.844 1059.56 881.031 1061.28C882.25 1063 883.766 1064.36 885.578 1065.36C887.391 1066.33 889.5 1066.81 891.906 1066.81C894.281 1066.81 896.359 1066.33 898.141 1065.36C899.953 1064.36 901.453 1063 902.641 1061.28C903.828 1059.56 904.719 1057.59 905.312 1055.38C905.938 1053.12 906.25 1050.73 906.25 1048.2V1047.12C906.25 1044.62 905.938 1042.27 905.312 1040.05C904.719 1037.8 903.812 1035.81 902.594 1034.09C901.406 1032.34 899.906 1030.97 898.094 1029.97C896.312 1028.97 894.219 1028.47 891.812 1028.47C889.438 1028.47 887.344 1028.97 885.531 1029.97C883.75 1030.97 882.25 1032.34 881.031 1034.09C879.844 1035.81 878.953 1037.8 878.359 1040.05C877.766 1042.27 877.469 1044.62 877.469 1047.12ZM934.516 1030.25V1073H925.844V1022.28H934.281L934.516 1030.25ZM950.359 1022L950.312 1030.06C949.594 1029.91 948.906 1029.81 948.25 1029.78C947.625 1029.72 946.906 1029.69 946.094 1029.69C944.094 1029.69 942.328 1030 940.797 1030.62C939.266 1031.25 937.969 1032.12 936.906 1033.25C935.844 1034.38 935 1035.72 934.375 1037.28C933.781 1038.81 933.391 1040.5 933.203 1042.34L930.766 1043.75C930.766 1040.69 931.062 1037.81 931.656 1035.12C932.281 1032.44 933.234 1030.06 934.516 1028C935.797 1025.91 937.422 1024.28 939.391 1023.12C941.391 1021.94 943.766 1021.34 946.516 1021.34C947.141 1021.34 947.859 1021.42 948.672 1021.58C949.484 1021.7 950.047 1021.84 950.359 1022ZM996.438 1067.75L1010.55 1022.28H1019.83L999.484 1080.83C999.016 1082.08 998.391 1083.42 997.609 1084.86C996.859 1086.33 995.891 1087.72 994.703 1089.03C993.516 1090.34 992.078 1091.41 990.391 1092.22C988.734 1093.06 986.75 1093.48 984.438 1093.48C983.75 1093.48 982.875 1093.39 981.812 1093.2C980.75 1093.02 980 1092.86 979.562 1092.73L979.516 1085.7C979.766 1085.73 980.156 1085.77 980.688 1085.8C981.25 1085.86 981.641 1085.89 981.859 1085.89C983.828 1085.89 985.5 1085.62 986.875 1085.09C988.25 1084.59 989.406 1083.73 990.344 1082.52C991.312 1081.33 992.141 1079.69 992.828 1077.59L996.438 1067.75ZM986.078 1022.28L999.25 1061.66L1001.5 1070.8L995.266 1073.98L976.609 1022.28H986.078ZM1024.61 1048.2V1047.12C1024.61 1043.47 1025.14 1040.08 1026.2 1036.95C1027.27 1033.8 1028.8 1031.06 1030.8 1028.75C1032.8 1026.41 1035.22 1024.59 1038.06 1023.31C1040.91 1022 1044.09 1021.34 1047.62 1021.34C1051.19 1021.34 1054.39 1022 1057.23 1023.31C1060.11 1024.59 1062.55 1026.41 1064.55 1028.75C1066.58 1031.06 1068.12 1033.8 1069.19 1036.95C1070.25 1040.08 1070.78 1043.47 1070.78 1047.12V1048.2C1070.78 1051.86 1070.25 1055.25 1069.19 1058.38C1068.12 1061.5 1066.58 1064.23 1064.55 1066.58C1062.55 1068.89 1060.12 1070.7 1057.28 1072.02C1054.47 1073.3 1051.28 1073.94 1047.72 1073.94C1044.16 1073.94 1040.95 1073.3 1038.11 1072.02C1035.27 1070.7 1032.83 1068.89 1030.8 1066.58C1028.8 1064.23 1027.27 1061.5 1026.2 1058.38C1025.14 1055.25 1024.61 1051.86 1024.61 1048.2ZM1033.28 1047.12V1048.2C1033.28 1050.73 1033.58 1053.12 1034.17 1055.38C1034.77 1057.59 1035.66 1059.56 1036.84 1061.28C1038.06 1063 1039.58 1064.36 1041.39 1065.36C1043.2 1066.33 1045.31 1066.81 1047.72 1066.81C1050.09 1066.81 1052.17 1066.33 1053.95 1065.36C1055.77 1064.36 1057.27 1063 1058.45 1061.28C1059.64 1059.56 1060.53 1057.59 1061.12 1055.38C1061.75 1053.12 1062.06 1050.73 1062.06 1048.2V1047.12C1062.06 1044.62 1061.75 1042.27 1061.12 1040.05C1060.53 1037.8 1059.62 1035.81 1058.41 1034.09C1057.22 1032.34 1055.72 1030.97 1053.91 1029.97C1052.12 1028.97 1050.03 1028.47 1047.62 1028.47C1045.25 1028.47 1043.16 1028.97 1041.34 1029.97C1039.56 1030.97 1038.06 1032.34 1036.84 1034.09C1035.66 1035.81 1034.77 1037.8 1034.17 1040.05C1033.58 1042.27 1033.28 1044.62 1033.28 1047.12ZM1112.69 1061.28V1022.28H1121.41V1073H1113.11L1112.69 1061.28ZM1114.33 1050.59L1117.94 1050.5C1117.94 1053.88 1117.58 1057 1116.86 1059.88C1116.17 1062.72 1115.05 1065.19 1113.48 1067.28C1111.92 1069.38 1109.88 1071.02 1107.34 1072.2C1104.81 1073.36 1101.73 1073.94 1098.11 1073.94C1095.64 1073.94 1093.38 1073.58 1091.31 1072.86C1089.28 1072.14 1087.53 1071.03 1086.06 1069.53C1084.59 1068.03 1083.45 1066.08 1082.64 1063.67C1081.86 1061.27 1081.47 1058.38 1081.47 1055V1022.28H1090.14V1055.09C1090.14 1057.38 1090.39 1059.27 1090.89 1060.77C1091.42 1062.23 1092.12 1063.41 1093 1064.28C1093.91 1065.12 1094.91 1065.72 1096 1066.06C1097.12 1066.41 1098.28 1066.58 1099.47 1066.58C1103.16 1066.58 1106.08 1065.88 1108.23 1064.47C1110.39 1063.03 1111.94 1061.11 1112.88 1058.7C1113.84 1056.27 1114.33 1053.56 1114.33 1050.59ZM1143.3 1030.25V1073H1134.62V1022.28H1143.06L1143.3 1030.25ZM1159.14 1022L1159.09 1030.06C1158.38 1029.91 1157.69 1029.81 1157.03 1029.78C1156.41 1029.72 1155.69 1029.69 1154.88 1029.69C1152.88 1029.69 1151.11 1030 1149.58 1030.62C1148.05 1031.25 1146.75 1032.12 1145.69 1033.25C1144.62 1034.38 1143.78 1035.72 1143.16 1037.28C1142.56 1038.81 1142.17 1040.5 1141.98 1042.34L1139.55 1043.75C1139.55 1040.69 1139.84 1037.81 1140.44 1035.12C1141.06 1032.44 1142.02 1030.06 1143.3 1028C1144.58 1025.91 1146.2 1024.28 1148.17 1023.12C1150.17 1021.94 1152.55 1021.34 1155.3 1021.34C1155.92 1021.34 1156.64 1021.42 1157.45 1021.58C1158.27 1021.7 1158.83 1021.84 1159.14 1022ZM1220.5 1059.55C1220.5 1058.3 1220.22 1057.14 1219.66 1056.08C1219.12 1054.98 1218.02 1054 1216.33 1053.12C1214.67 1052.22 1212.17 1051.44 1208.83 1050.78C1206.02 1050.19 1203.47 1049.48 1201.19 1048.67C1198.94 1047.86 1197.02 1046.88 1195.42 1045.72C1193.86 1044.56 1192.66 1043.2 1191.81 1041.64C1190.97 1040.08 1190.55 1038.25 1190.55 1036.16C1190.55 1034.16 1190.98 1032.27 1191.86 1030.48C1192.77 1028.7 1194.03 1027.12 1195.66 1025.75C1197.31 1024.38 1199.3 1023.3 1201.61 1022.52C1203.92 1021.73 1206.5 1021.34 1209.34 1021.34C1213.41 1021.34 1216.88 1022.06 1219.75 1023.5C1222.62 1024.94 1224.83 1026.86 1226.36 1029.27C1227.89 1031.64 1228.66 1034.28 1228.66 1037.19H1219.98C1219.98 1035.78 1219.56 1034.42 1218.72 1033.11C1217.91 1031.77 1216.7 1030.66 1215.11 1029.78C1213.55 1028.91 1211.62 1028.47 1209.34 1028.47C1206.94 1028.47 1204.98 1028.84 1203.48 1029.59C1202.02 1030.31 1200.94 1031.23 1200.25 1032.36C1199.59 1033.48 1199.27 1034.67 1199.27 1035.92C1199.27 1036.86 1199.42 1037.7 1199.73 1038.45C1200.08 1039.17 1200.67 1039.84 1201.52 1040.47C1202.36 1041.06 1203.55 1041.62 1205.08 1042.16C1206.61 1042.69 1208.56 1043.22 1210.94 1043.75C1215.09 1044.69 1218.52 1045.81 1221.2 1047.12C1223.89 1048.44 1225.89 1050.05 1227.2 1051.95C1228.52 1053.86 1229.17 1056.17 1229.17 1058.89C1229.17 1061.11 1228.7 1063.14 1227.77 1064.98C1226.86 1066.83 1225.53 1068.42 1223.78 1069.77C1222.06 1071.08 1220 1072.11 1217.59 1072.86C1215.22 1073.58 1212.55 1073.94 1209.58 1073.94C1205.11 1073.94 1201.33 1073.14 1198.23 1071.55C1195.14 1069.95 1192.8 1067.89 1191.2 1065.36C1189.61 1062.83 1188.81 1060.16 1188.81 1057.34H1197.53C1197.66 1059.72 1198.34 1061.61 1199.59 1063.02C1200.84 1064.39 1202.38 1065.38 1204.19 1065.97C1206 1066.53 1207.8 1066.81 1209.58 1066.81C1211.95 1066.81 1213.94 1066.5 1215.53 1065.88C1217.16 1065.25 1218.39 1064.39 1219.23 1063.3C1220.08 1062.2 1220.5 1060.95 1220.5 1059.55ZM1261.61 1073.94C1258.08 1073.94 1254.88 1073.34 1252 1072.16C1249.16 1070.94 1246.7 1069.23 1244.64 1067.05C1242.61 1064.86 1241.05 1062.27 1239.95 1059.27C1238.86 1056.27 1238.31 1052.98 1238.31 1049.42V1047.45C1238.31 1043.33 1238.92 1039.66 1240.14 1036.44C1241.36 1033.19 1243.02 1030.44 1245.11 1028.19C1247.2 1025.94 1249.58 1024.23 1252.23 1023.08C1254.89 1021.92 1257.64 1021.34 1260.48 1021.34C1264.11 1021.34 1267.23 1021.97 1269.86 1023.22C1272.52 1024.47 1274.69 1026.22 1276.38 1028.47C1278.06 1030.69 1279.31 1033.31 1280.12 1036.34C1280.94 1039.34 1281.34 1042.62 1281.34 1046.19V1050.08H1243.47V1043H1272.67V1042.34C1272.55 1040.09 1272.08 1037.91 1271.27 1035.78C1270.48 1033.66 1269.23 1031.91 1267.52 1030.53C1265.8 1029.16 1263.45 1028.47 1260.48 1028.47C1258.52 1028.47 1256.7 1028.89 1255.05 1029.73C1253.39 1030.55 1251.97 1031.77 1250.78 1033.39C1249.59 1035.02 1248.67 1037 1248.02 1039.34C1247.36 1041.69 1247.03 1044.39 1247.03 1047.45V1049.42C1247.03 1051.83 1247.36 1054.09 1248.02 1056.22C1248.7 1058.31 1249.69 1060.16 1250.97 1061.75C1252.28 1063.34 1253.86 1064.59 1255.7 1065.5C1257.58 1066.41 1259.7 1066.86 1262.08 1066.86C1265.14 1066.86 1267.73 1066.23 1269.86 1064.98C1271.98 1063.73 1273.84 1062.06 1275.44 1059.97L1280.69 1064.14C1279.59 1065.8 1278.2 1067.38 1276.52 1068.88C1274.83 1070.38 1272.75 1071.59 1270.28 1072.53C1267.84 1073.47 1264.95 1073.94 1261.61 1073.94ZM1321.38 1064.33V1038.22C1321.38 1036.22 1320.97 1034.48 1320.16 1033.02C1319.38 1031.52 1318.19 1030.36 1316.59 1029.55C1315 1028.73 1313.03 1028.33 1310.69 1028.33C1308.5 1028.33 1306.58 1028.7 1304.92 1029.45C1303.3 1030.2 1302.02 1031.19 1301.08 1032.41C1300.17 1033.62 1299.72 1034.94 1299.72 1036.34H1291.05C1291.05 1034.53 1291.52 1032.73 1292.45 1030.95C1293.39 1029.17 1294.73 1027.56 1296.48 1026.12C1298.27 1024.66 1300.39 1023.5 1302.86 1022.66C1305.36 1021.78 1308.14 1021.34 1311.2 1021.34C1314.89 1021.34 1318.14 1021.97 1320.95 1023.22C1323.8 1024.47 1326.02 1026.36 1327.61 1028.89C1329.23 1031.39 1330.05 1034.53 1330.05 1038.31V1061.94C1330.05 1063.62 1330.19 1065.42 1330.47 1067.33C1330.78 1069.23 1331.23 1070.88 1331.83 1072.25V1073H1322.78C1322.34 1072 1322 1070.67 1321.75 1069.02C1321.5 1067.33 1321.38 1065.77 1321.38 1064.33ZM1322.88 1042.25L1322.97 1048.34H1314.2C1311.73 1048.34 1309.53 1048.55 1307.59 1048.95C1305.66 1049.33 1304.03 1049.91 1302.72 1050.69C1301.41 1051.47 1300.41 1052.45 1299.72 1053.64C1299.03 1054.8 1298.69 1056.16 1298.69 1057.72C1298.69 1059.31 1299.05 1060.77 1299.77 1062.08C1300.48 1063.39 1301.56 1064.44 1303 1065.22C1304.47 1065.97 1306.27 1066.34 1308.39 1066.34C1311.05 1066.34 1313.39 1065.78 1315.42 1064.66C1317.45 1063.53 1319.06 1062.16 1320.25 1060.53C1321.47 1058.91 1322.12 1057.33 1322.22 1055.8L1325.92 1059.97C1325.7 1061.28 1325.11 1062.73 1324.14 1064.33C1323.17 1065.92 1321.88 1067.45 1320.25 1068.92C1318.66 1070.36 1316.75 1071.56 1314.53 1072.53C1312.34 1073.47 1309.88 1073.94 1307.12 1073.94C1303.69 1073.94 1300.67 1073.27 1298.08 1071.92C1295.52 1070.58 1293.52 1068.78 1292.08 1066.53C1290.67 1064.25 1289.97 1061.7 1289.97 1058.89C1289.97 1056.17 1290.5 1053.78 1291.56 1051.72C1292.62 1049.62 1294.16 1047.89 1296.16 1046.52C1298.16 1045.11 1300.56 1044.05 1303.38 1043.33C1306.19 1042.61 1309.33 1042.25 1312.8 1042.25H1322.88ZM1352.36 1030.25V1073H1343.69V1022.28H1352.12L1352.36 1030.25ZM1368.2 1022L1368.16 1030.06C1367.44 1029.91 1366.75 1029.81 1366.09 1029.78C1365.47 1029.72 1364.75 1029.69 1363.94 1029.69C1361.94 1029.69 1360.17 1030 1358.64 1030.62C1357.11 1031.25 1355.81 1032.12 1354.75 1033.25C1353.69 1034.38 1352.84 1035.72 1352.22 1037.28C1351.62 1038.81 1351.23 1040.5 1351.05 1042.34L1348.61 1043.75C1348.61 1040.69 1348.91 1037.81 1349.5 1035.12C1350.12 1032.44 1351.08 1030.06 1352.36 1028C1353.64 1025.91 1355.27 1024.28 1357.23 1023.12C1359.23 1021.94 1361.61 1021.34 1364.36 1021.34C1364.98 1021.34 1365.7 1021.42 1366.52 1021.58C1367.33 1021.7 1367.89 1021.84 1368.2 1022ZM1395.58 1066.81C1397.64 1066.81 1399.55 1066.39 1401.3 1065.55C1403.05 1064.7 1404.48 1063.55 1405.61 1062.08C1406.73 1060.58 1407.38 1058.88 1407.53 1056.97H1415.78C1415.62 1059.97 1414.61 1062.77 1412.73 1065.36C1410.89 1067.92 1408.47 1070 1405.47 1071.59C1402.47 1073.16 1399.17 1073.94 1395.58 1073.94C1391.77 1073.94 1388.44 1073.27 1385.59 1071.92C1382.78 1070.58 1380.44 1068.73 1378.56 1066.39C1376.72 1064.05 1375.33 1061.36 1374.39 1058.33C1373.48 1055.27 1373.03 1052.03 1373.03 1048.62V1046.66C1373.03 1043.25 1373.48 1040.03 1374.39 1037C1375.33 1033.94 1376.72 1031.23 1378.56 1028.89C1380.44 1026.55 1382.78 1024.7 1385.59 1023.36C1388.44 1022.02 1391.77 1021.34 1395.58 1021.34C1399.55 1021.34 1403.02 1022.16 1405.98 1023.78C1408.95 1025.38 1411.28 1027.56 1412.97 1030.34C1414.69 1033.09 1415.62 1036.22 1415.78 1039.72H1407.53C1407.38 1037.62 1406.78 1035.73 1405.75 1034.05C1404.75 1032.36 1403.38 1031.02 1401.62 1030.02C1399.91 1028.98 1397.89 1028.47 1395.58 1028.47C1392.92 1028.47 1390.69 1029 1388.88 1030.06C1387.09 1031.09 1385.67 1032.5 1384.61 1034.28C1383.58 1036.03 1382.83 1037.98 1382.36 1040.14C1381.92 1042.27 1381.7 1044.44 1381.7 1046.66V1048.62C1381.7 1050.84 1381.92 1053.03 1382.36 1055.19C1382.8 1057.34 1383.53 1059.3 1384.56 1061.05C1385.62 1062.8 1387.05 1064.2 1388.83 1065.27C1390.64 1066.3 1392.89 1066.81 1395.58 1066.81ZM1434.2 1001V1073H1425.53V1001H1434.2ZM1432.14 1045.72L1428.53 1045.58C1428.56 1042.11 1429.08 1038.91 1430.08 1035.97C1431.08 1033 1432.48 1030.42 1434.3 1028.23C1436.11 1026.05 1438.27 1024.36 1440.77 1023.17C1443.3 1021.95 1446.09 1021.34 1449.16 1021.34C1451.66 1021.34 1453.91 1021.69 1455.91 1022.38C1457.91 1023.03 1459.61 1024.09 1461.02 1025.56C1462.45 1027.03 1463.55 1028.94 1464.3 1031.28C1465.05 1033.59 1465.42 1036.42 1465.42 1039.77V1073H1456.7V1039.67C1456.7 1037.02 1456.31 1034.89 1455.53 1033.3C1454.75 1031.67 1453.61 1030.5 1452.11 1029.78C1450.61 1029.03 1448.77 1028.66 1446.58 1028.66C1444.42 1028.66 1442.45 1029.11 1440.67 1030.02C1438.92 1030.92 1437.41 1032.17 1436.12 1033.77C1434.88 1035.36 1433.89 1037.19 1433.17 1039.25C1432.48 1041.28 1432.14 1043.44 1432.14 1045.72Z" fill="black"/>
<defs>
<clipPath id="clip0_533_3686">
<rect width="1104.47" height="797.515" fill="white" transform="translate(267)"/>
</clipPath>
</defs>
</svg>
