<svg viewBox="0 0 1409 845" fill="none" xmlns="http://www.w3.org/2000/svg">
<g clip-path="url(#clip0_534_3687)">
<path d="M456.948 451.343L407.206 433.964C401.73 406.839 402.958 378.787 410.783 352.245C429.653 397.675 488.509 410.376 521.187 447.147C531.292 458.693 538.668 472.366 542.77 487.151C546.872 501.935 547.594 517.454 544.883 532.556L554.408 568.692C529.8 565.87 506.097 557.746 484.931 544.881C463.765 532.016 445.64 514.716 431.804 494.171C424.156 482.569 418 470.05 413.481 456.909C434.952 455.386 456.948 451.343 456.948 451.343Z" fill="#F2F2F2"/>
<path d="M795.126 39.09V436.32L793.746 452.86C791.326 481.571 779.164 508.592 759.276 529.44C756.456 532.39 753.506 535.183 750.426 537.82C746.634 541.09 742.647 544.125 738.486 546.91C736.106 548.51 733.666 550.02 731.186 551.45C716.763 559.779 700.833 565.166 684.316 567.3H565.956C556.537 567.308 547.434 563.901 540.336 557.71C536.821 554.651 533.876 550.995 531.636 546.91C528.505 541.178 526.868 534.751 526.876 528.22V39.09C526.889 28.7267 531.011 18.7917 538.339 11.4637C545.667 4.13579 555.602 0.0131722 565.966 0H756.046C756.496 0 756.936 0.00998901 757.386 0.019989C757.676 0.029989 757.966 0.0399921 758.256 0.0699921C758.646 0.0799921 759.035 0.109994 759.415 0.149994C759.905 0.179994 760.386 0.229948 760.866 0.289948C761.306 0.349948 761.746 0.40995 762.186 0.47995C762.276 0.48995 762.356 0.509943 762.446 0.519943C763.006 0.609943 763.566 0.709941 764.116 0.829941C764.666 0.939941 765.226 1.06995 765.766 1.20995C766.156 1.30995 766.556 1.41994 766.946 1.52994C766.956 1.52994 766.976 1.53995 766.986 1.53995C768.136 1.87995 769.276 2.26994 770.396 2.71999C770.746 2.84994 771.096 2.99999 771.436 3.14999L771.586 3.20999C771.866 3.32999 772.136 3.44999 772.406 3.57999C773.216 3.94999 774.016 4.35999 774.806 4.78999C776.105 5.50643 777.363 6.29432 778.576 7.15004C778.966 7.41999 779.346 7.71005 779.716 8.00005C780.026 8.23005 780.336 8.47004 780.636 8.73004C780.661 8.7433 780.685 8.76014 780.706 8.78004C780.746 8.81004 780.786 8.85004 780.826 8.88004C781.096 9.09004 781.355 9.31004 781.605 9.53004C782.095 9.95004 782.576 10.39 783.046 10.84C783.176 10.96 783.306 11.08 783.436 11.21C783.566 11.33 783.686 11.46 783.816 11.59C783.946 11.71 784.066 11.84 784.186 11.96C784.257 12.0216 784.324 12.0885 784.386 12.16C784.746 12.54 785.096 12.93 785.436 13.32C785.866 13.81 786.286 14.31 786.676 14.82C787.016 15.24 787.336 15.66 787.646 16.09C787.936 16.48 788.205 16.8701 788.475 17.2701C788.548 17.3696 788.615 17.473 788.676 17.58C788.956 17.99 789.215 18.41 789.475 18.83C790.125 19.89 790.716 20.99 791.256 22.1C791.456 22.52 791.646 22.93 791.826 23.35C792.056 23.86 792.266 24.37 792.466 24.88C792.546 25.07 792.616 25.27 792.686 25.46C792.796 25.75 792.896 26.04 792.996 26.33C793.106 26.65 793.216 26.98 793.316 27.3L793.556 28.08C793.696 28.55 793.816 29.01 793.936 29.48C794.006 29.76 794.076 30.04 794.136 30.33C794.605 32.3723 794.909 34.449 795.046 36.54C795.056 36.8 795.076 37.05 795.086 37.31C795.116 37.9 795.126 38.49 795.126 39.09Z" fill="#3F3D56"/>
<path d="M524.164 177.968C522.998 177.967 521.88 177.503 521.055 176.678C520.23 175.854 519.767 174.736 519.765 173.569V143.657C519.764 143.079 519.877 142.506 520.098 141.972C520.319 141.437 520.643 140.951 521.051 140.542C521.46 140.133 521.945 139.808 522.479 139.587C523.013 139.365 523.586 139.251 524.164 139.251C524.742 139.251 525.315 139.365 525.849 139.587C526.383 139.808 526.868 140.133 527.277 140.542C527.685 140.951 528.009 141.437 528.23 141.972C528.451 142.506 528.564 143.079 528.563 143.657V173.569C528.562 174.735 528.098 175.854 527.273 176.678C526.448 177.503 525.33 177.967 524.164 177.968V177.968Z" fill="#3F3D56"/>
<path d="M523.284 119.904C522.118 119.902 521 119.438 520.175 118.614C519.35 117.789 518.887 116.671 518.885 115.505V85.5924C518.887 84.4269 519.351 83.3098 520.176 82.4863C521.001 81.6627 522.119 81.2002 523.284 81.2002C524.45 81.2002 525.567 81.6627 526.392 82.4863C527.217 83.3098 527.681 84.4269 527.683 85.5924V115.505C527.682 116.671 527.218 117.789 526.393 118.614C525.568 119.438 524.45 119.902 523.284 119.904V119.904Z" fill="#3F3D56"/>
<path d="M631.294 14.5327C631.295 13.3664 631.759 12.2483 632.584 11.4237C633.409 10.599 634.527 10.1351 635.693 10.1338H665.605C666.772 10.1338 667.891 10.5972 668.716 11.4222C669.541 12.2471 670.004 13.366 670.004 14.5327C670.004 15.6993 669.541 16.8182 668.716 17.6431C667.891 18.4681 666.772 18.9315 665.605 18.9315H635.693C634.527 18.9301 633.409 18.4663 632.584 17.6416C631.759 16.817 631.295 15.6989 631.294 14.5327V14.5327Z" fill="white"/>
<path d="M524.164 228.995C522.998 228.994 521.88 228.53 521.055 227.705C520.23 226.88 519.767 225.762 519.765 224.596V194.684C519.764 194.106 519.877 193.533 520.098 192.998C520.319 192.464 520.643 191.978 521.051 191.569C521.46 191.16 521.945 190.835 522.479 190.614C523.013 190.392 523.586 190.278 524.164 190.278C524.742 190.278 525.315 190.392 525.849 190.614C526.383 190.835 526.868 191.16 527.277 191.569C527.685 191.978 528.009 192.464 528.23 192.998C528.451 193.533 528.564 194.106 528.563 194.684V224.596C528.562 225.762 528.098 226.88 527.273 227.705C526.448 228.53 525.33 228.994 524.164 228.995V228.995Z" fill="#3F3D56"/>
<path d="M798.164 163.995C796.998 163.994 795.88 163.53 795.055 162.705C794.23 161.88 793.767 160.762 793.765 159.596V129.684C793.764 129.106 793.877 128.533 794.098 127.998C794.319 127.464 794.643 126.978 795.051 126.569C795.46 126.16 795.945 125.835 796.479 125.614C797.013 125.392 797.586 125.278 798.164 125.278C798.742 125.278 799.315 125.392 799.849 125.614C800.383 125.835 800.868 126.16 801.277 126.569C801.685 126.978 802.009 127.464 802.23 127.998C802.451 128.533 802.564 129.106 802.563 129.684V159.596C802.562 160.762 802.098 161.88 801.273 162.705C800.448 163.53 799.33 163.994 798.164 163.995V163.995Z" fill="#3F3D56"/>
<path d="M682.321 18.9315C684.75 18.9315 686.72 16.9621 686.72 14.5326C686.72 12.1032 684.75 10.1338 682.321 10.1338C679.891 10.1338 677.922 12.1032 677.922 14.5326C677.922 16.9621 679.891 18.9315 682.321 18.9315Z" fill="white"/>
<path d="M775.669 53.2026H546.346C546.08 53.1967 545.828 53.0871 545.642 52.8974C545.456 52.7076 545.353 52.4527 545.353 52.1872C545.353 51.9218 545.456 51.6669 545.642 51.4771C545.828 51.2873 546.08 51.1778 546.346 51.1719H775.669C775.934 51.1778 776.187 51.2873 776.372 51.4771C776.558 51.6669 776.662 51.9218 776.662 52.1872C776.662 52.4527 776.558 52.7076 776.372 52.8974C776.187 53.0871 775.934 53.1967 775.669 53.2026V53.2026Z" fill="white"/>
<path d="M563.726 45.9874C567.012 45.9874 569.676 43.2639 569.676 39.9043C569.676 36.5448 567.012 33.8213 563.726 33.8213C560.439 33.8213 557.775 36.5448 557.775 39.9043C557.775 43.2639 560.439 45.9874 563.726 45.9874Z" fill="white"/>
<path d="M584.282 45.9874C587.568 45.9874 590.232 43.2639 590.232 39.9043C590.232 36.5448 587.568 33.8213 584.282 33.8213C580.996 33.8213 578.332 36.5448 578.332 39.9043C578.332 43.2639 580.996 45.9874 584.282 45.9874Z" fill="white"/>
<path d="M604.838 45.9874C608.124 45.9874 610.789 43.2639 610.789 39.9043C610.789 36.5448 608.124 33.8213 604.838 33.8213C601.552 33.8213 598.888 36.5448 598.888 39.9043C598.888 43.2639 601.552 45.9874 604.838 45.9874Z" fill="white"/>
<path d="M763.293 35.3291H748.691C748.401 35.3349 748.126 35.4539 747.923 35.6606C747.72 35.8673 747.607 36.1453 747.607 36.4347C747.607 36.7242 747.72 37.0021 747.923 37.2088C748.126 37.4156 748.401 37.5346 748.691 37.5404H763.293C763.582 37.5346 763.858 37.4156 764.06 37.2088C764.263 37.0021 764.376 36.7242 764.376 36.4347C764.376 36.1453 764.263 35.8673 764.06 35.6606C763.858 35.4539 763.582 35.3349 763.293 35.3291V35.3291Z" fill="white"/>
<path d="M763.293 39.4795H748.691C748.401 39.4853 748.126 39.6043 747.923 39.811C747.72 40.0177 747.607 40.2957 747.607 40.5851C747.607 40.8746 747.72 41.1525 747.923 41.3593C748.126 41.566 748.401 41.685 748.691 41.6908H763.293C763.582 41.685 763.858 41.566 764.06 41.3593C764.263 41.1525 764.376 40.8746 764.376 40.5851C764.376 40.2957 764.263 40.0177 764.06 39.811C763.858 39.6043 763.582 39.4853 763.293 39.4795V39.4795Z" fill="white"/>
<path d="M763.293 43.624H748.691C748.401 43.6298 748.126 43.7488 747.923 43.9555C747.72 44.1623 747.607 44.4402 747.607 44.7297C747.607 45.0191 747.72 45.2971 747.923 45.5038C748.126 45.7105 748.401 45.8295 748.691 45.8353H763.293C763.582 45.8295 763.858 45.7105 764.06 45.5038C764.263 45.2971 764.376 45.0191 764.376 44.7297C764.376 44.4402 764.263 44.1623 764.06 43.9555C763.858 43.7488 763.582 43.6298 763.293 43.624V43.624Z" fill="white"/>
<path d="M600.97 208.39C601.069 209.808 601.487 211.185 602.192 212.419C603.767 214.99 606.15 216.967 608.968 218.039C612.396 219.442 616.217 219.485 619.855 219.172C623.234 218.882 626.578 218.208 629.969 218.07C632.592 217.986 635.217 218.048 637.833 218.257C642.907 218.617 647.961 219.286 652.982 220.096C654.342 220.313 655.699 220.545 657.053 220.794C657.181 220.806 657.307 220.829 657.431 220.865C657.455 220.875 657.495 220.867 657.517 220.881C657.558 220.907 657.352 220.816 657.477 220.919C657.651 221.102 657.807 221.302 657.941 221.516L659.795 223.902C660.282 224.653 660.857 225.343 661.508 225.957C661.992 226.332 662.577 226.554 663.188 226.597C663.799 226.639 664.408 226.5 664.94 226.197C665.496 225.845 665.939 225.342 666.217 224.746C666.643 223.964 667.152 223.23 667.735 222.555C669.941 219.982 673.007 218.399 675.572 216.233C676.814 215.227 677.874 214.015 678.706 212.651C679.416 211.415 679.857 210.045 680.001 208.627C680.226 205.723 679.503 202.824 677.939 200.366C676.324 197.735 674.003 195.611 671.24 194.234C668.104 192.729 664.723 191.803 661.259 191.499C657.595 191.153 653.913 191.031 650.234 191.133C646.112 191.179 641.997 191.361 637.89 191.677C633.777 191.996 629.681 192.448 625.6 193.035C621.66 193.532 617.75 194.249 613.89 195.18C610.431 195.923 607.228 197.559 604.6 199.927C603.432 201.002 602.505 202.312 601.88 203.771C601.254 205.229 600.944 206.804 600.97 208.39Z" fill="#E6E6E6"/>
<path d="M658.141 198.779H619.124C618.35 198.78 617.609 199.088 617.062 199.634C616.516 200.181 616.208 200.922 616.207 201.695V202.166C616.208 202.939 616.516 203.68 617.062 204.227C617.609 204.773 618.35 205.081 619.124 205.082H658.141C658.915 205.081 659.656 204.773 660.203 204.227C660.749 203.68 661.057 202.939 661.058 202.166V201.695C661.057 200.922 660.749 200.181 660.202 199.634C659.656 199.088 658.915 198.78 658.141 198.779V198.779Z" fill="white"/>
<path d="M658.141 206.779H619.124C618.35 206.78 617.609 207.088 617.062 207.635C616.516 208.182 616.208 208.923 616.207 209.696V210.166C616.208 210.939 616.516 211.68 617.062 212.227C617.609 212.774 618.35 213.082 619.124 213.083H658.141C658.915 213.082 659.656 212.774 660.203 212.227C660.749 211.68 661.057 210.939 661.058 210.166V209.696C661.057 208.923 660.749 208.182 660.202 207.635C659.656 207.088 658.915 206.78 658.141 206.779V206.779Z" fill="white"/>
<path d="M739.153 150.39C739.054 151.807 738.636 153.184 737.932 154.418C736.356 156.99 733.973 158.966 731.155 160.039C727.727 161.441 723.906 161.485 720.268 161.172C716.89 160.881 713.545 160.208 710.154 160.069C707.531 159.985 704.906 160.048 702.29 160.257C697.216 160.617 692.162 161.285 687.141 162.095C685.782 162.312 684.425 162.545 683.07 162.794C682.942 162.805 682.816 162.829 682.692 162.864C682.668 162.874 682.628 162.866 682.606 162.881C682.565 162.906 682.771 162.815 682.646 162.919C682.472 163.101 682.317 163.301 682.183 163.515L680.328 165.902C679.841 166.652 679.266 167.342 678.616 167.957C678.131 168.331 677.546 168.554 676.935 168.596C676.325 168.639 675.715 168.5 675.183 168.196C674.627 167.845 674.184 167.342 673.906 166.746C673.48 165.964 672.971 165.229 672.388 164.555C670.182 161.981 667.116 160.398 664.552 158.233C663.309 157.227 662.249 156.015 661.417 154.65C660.708 153.415 660.266 152.044 660.122 150.627C659.897 147.723 660.621 144.824 662.184 142.365C663.799 139.735 666.121 137.61 668.883 136.233C672.019 134.729 675.4 133.802 678.864 133.498C682.528 133.152 686.21 133.03 689.89 133.133C694.012 133.179 698.126 133.36 702.233 133.677C706.346 133.995 710.443 134.448 714.523 135.034C718.463 135.532 722.373 136.248 726.233 137.18C729.692 137.922 732.895 139.559 735.523 141.927C736.691 143.002 737.618 144.312 738.244 145.77C738.869 147.229 739.179 148.803 739.153 150.39V150.39Z" fill="#E6E6E6"/>
<path d="M679.065 143.695V144.166C679.067 144.939 679.374 145.68 679.921 146.227C680.468 146.773 681.209 147.081 681.982 147.082H721C721.773 147.081 722.514 146.773 723.061 146.227C723.608 145.68 723.915 144.939 723.916 144.166V143.695C723.915 142.922 723.608 142.181 723.061 141.634C722.514 141.088 721.773 140.78 721 140.779H681.982C681.209 140.78 680.468 141.088 679.921 141.634C679.374 142.181 679.067 142.922 679.065 143.695Z" fill="white"/>
<path d="M679.065 151.696V152.166C679.067 152.939 679.374 153.68 679.921 154.227C680.468 154.774 681.209 155.082 681.982 155.083H721C721.773 155.082 722.514 154.774 723.061 154.227C723.608 153.68 723.915 152.939 723.916 152.166V151.696C723.915 150.923 723.608 150.182 723.061 149.635C722.514 149.088 721.773 148.78 721 148.779H681.982C681.209 148.78 680.468 149.088 679.921 149.635C679.374 150.182 679.067 150.923 679.065 151.696Z" fill="white"/>
<path d="M928.58 555.014L916.19 555.013L910.296 507.224L928.582 507.225L928.58 555.014Z" fill="#A0616A"/>
<path d="M928.25 550.965L915.03 545.595L914.64 545.435L907.34 550.965C903.334 550.964 899.482 552.51 896.589 555.281C893.695 558.051 891.983 561.832 891.81 565.835C891.79 566.055 891.79 566.285 891.79 566.515V567.025H931.74V550.965H928.25Z" fill="#2F2E41"/>
<path d="M899.564 543.484L887.877 547.596L866.455 504.472L883.705 498.403L899.564 543.484Z" fill="#A0616A"/>
<path d="M897.909 539.774L883.656 539.096L883.235 539.074L878.185 546.714C874.405 548.043 871.286 550.78 869.476 554.354C867.666 557.928 867.306 562.062 868.47 565.895C868.525 566.11 868.601 566.327 868.677 566.544L868.847 567.025L906.532 553.765L901.201 538.615L897.909 539.774Z" fill="#2F2E41"/>
<path d="M932.959 348.956C944.294 348.516 930.252 438.846 930.252 438.846C930.252 438.846 934.36 518.151 933.489 522.313C932.618 526.475 933.379 537.699 933.379 537.699C931.158 533.657 908.247 536.708 908.247 536.708L905.13 456.332L889.217 391.932L867.154 435.1L888.3 501.361C888.3 501.361 896.863 509.285 895.953 512.416C895.042 515.548 872.612 522.61 868.49 522.769C864.368 522.929 866.229 517.697 866.03 512.545C865.83 507.392 846.434 459.64 839.612 443.393C832.79 427.145 838.093 404.235 841.576 387.588C845.058 370.941 863.379 339.699 863.379 339.699C886.121 314.049 921.623 349.395 932.959 348.956Z" fill="#2F2E41"/>
<path d="M927.072 363.437C898.962 363.438 883.471 357.811 875.245 352.786C865.186 346.643 863.465 340.164 863.397 339.891L863.377 339.812L864.356 327.492L864.784 326.533C866.757 322.117 867.019 317.125 865.519 312.526L865.488 312.432L865.496 312.333L872.068 227.088L895.328 219.469L902.095 212.67L932.222 212.233L936.42 220.744L960.171 229.685L948.502 299.142L942.909 308.783L945.16 319.286L945.144 319.381L937.806 363.181L937.402 363.198C933.783 363.36 930.339 363.44 927.072 363.437Z" fill="#E6E6E6"/>
<path d="M938.789 183.559C937.885 190.15 934.401 196.114 929.102 200.138C923.804 204.162 917.125 205.919 910.532 205.021C903.94 204.124 897.973 200.647 893.943 195.353C889.912 190.059 888.149 183.381 889.039 176.788L889.087 176.431C890.127 169.926 893.683 164.09 898.987 160.182C904.292 156.275 910.919 154.609 917.441 155.544C923.962 156.48 929.855 159.941 933.847 165.181C937.839 170.422 939.612 177.022 938.782 183.558L938.789 183.559Z" fill="#A0616A"/>
<path d="M932.4 196.49C933.689 193.871 935.013 191.059 934.651 188.163C934.289 185.266 931.448 182.498 928.659 183.359C926.991 183.873 925.731 185.52 923.987 185.605C921.588 185.721 920.213 182.975 919.466 180.693L916.425 171.396C913.505 173.672 910.119 175.275 906.507 176.091C902.896 176.907 899.149 176.916 895.534 176.117C892.711 175.471 889.858 174.213 888.202 171.837C886.546 169.461 886.556 165.775 888.828 163.978C889.941 163.097 891.424 162.762 892.488 161.822C893.149 161.239 893.604 160.459 893.786 159.597C893.969 158.735 893.869 157.837 893.501 157.037C893.134 156.236 892.519 155.575 891.746 155.151C890.974 154.727 890.086 154.564 889.213 154.684L896.87 153.727L894.588 149.601C895.456 150.191 896.436 150.594 897.468 150.783C898.5 150.972 899.56 150.944 900.58 150.7C902.64 150.329 904.58 149.481 906.596 148.915C911.48 147.668 916.639 148.049 921.287 150.001C925.936 151.953 929.82 155.369 932.35 159.73C934.234 159.101 936.265 159.059 938.174 159.61C940.082 160.161 941.778 161.279 943.037 162.816C945.087 165.417 945.644 168.889 945.724 172.2C945.873 178.729 944.449 185.197 941.573 191.06C940.748 192.922 939.563 194.603 938.087 196.006C937.343 196.701 936.456 197.226 935.489 197.542C934.521 197.859 933.496 197.96 932.485 197.838" fill="#2F2E41"/>
<path d="M648.542 421.793C648.424 421.793 648.306 421.791 648.186 421.786C646.794 421.735 645.435 421.35 644.224 420.661C643.013 419.972 641.987 419.001 641.232 417.831C635.577 409.379 628.637 401.861 620.663 395.55C615.836 391.692 610.792 388.105 605.914 384.635C593.33 375.687 581.479 367.26 574.9 355.615C560.557 330.224 577.448 294.858 601.579 278.997C628.645 261.209 664.246 258.418 698.686 258.053C702.265 258.015 705.847 257.996 709.43 257.996C771.484 258.02 833.407 263.682 894.436 274.912C914.729 278.656 935.971 283.243 953.041 294.374C970.01 305.439 980.324 322.864 979.318 338.767C977.849 361.983 953.238 379.33 930.828 383.865C909.468 388.185 887.278 385.266 863.786 382.174C858.599 381.492 853.237 380.787 847.934 380.174C790.304 373.512 682.042 394.044 677.462 394.921L672.918 395.791L655.286 418.48C654.493 419.515 653.472 420.352 652.302 420.926C651.132 421.501 649.845 421.798 648.542 421.793Z" fill="#BDC3C7"/>
<path d="M905.176 308.537H661.593C660.187 308.537 658.839 307.979 657.845 306.985C656.851 305.991 656.293 304.643 656.293 303.237C656.293 301.832 656.851 300.484 657.845 299.49C658.839 298.496 660.187 297.938 661.593 297.938H905.176C906.582 297.938 907.93 298.496 908.924 299.49C909.918 300.484 910.476 301.832 910.476 303.237C910.476 304.643 909.918 305.991 908.924 306.985C907.93 307.979 906.582 308.537 905.176 308.537Z" fill="white"/>
<path d="M905.176 341.068H661.593C660.896 341.07 660.207 340.934 659.563 340.668C658.919 340.403 658.334 340.013 657.841 339.522C657.347 339.03 656.956 338.446 656.689 337.803C656.421 337.16 656.283 336.471 656.283 335.774C656.282 335.078 656.418 334.388 656.684 333.744C656.95 333.101 657.341 332.516 657.833 332.023C658.325 331.531 658.909 331.14 659.553 330.873C660.196 330.606 660.885 330.469 661.582 330.469H905.176C906.581 330.471 907.927 331.03 908.919 332.024C909.912 333.017 910.469 334.364 910.469 335.769C910.469 337.173 909.912 338.52 908.919 339.514C907.927 340.507 906.581 341.067 905.176 341.068V341.068Z" fill="white"/>
<path d="M689.979 373.599H661.593C660.189 373.597 658.842 373.038 657.85 372.044C656.858 371.05 656.3 369.703 656.3 368.299C656.3 366.895 656.858 365.548 657.85 364.554C658.842 363.56 660.189 363.001 661.593 362.999H689.979C691.383 363.001 692.729 363.56 693.722 364.554C694.714 365.548 695.271 366.895 695.271 368.299C695.271 369.703 694.714 371.05 693.722 372.044C692.729 373.038 691.383 373.597 689.979 373.599V373.599Z" fill="white"/>
<path d="M925.221 391.918C926.687 391.348 928.01 390.464 929.096 389.328C930.183 388.192 931.007 386.831 931.511 385.342C932.015 383.852 932.187 382.271 932.013 380.708C931.84 379.145 931.326 377.64 930.508 376.297L957.021 281.999L933.759 279.568L915.012 373.025C912.848 374.549 911.318 376.814 910.712 379.391C910.106 381.968 910.466 384.677 911.725 387.006C912.983 389.335 915.052 391.121 917.54 392.027C920.027 392.932 922.76 392.893 925.221 391.918V391.918Z" fill="#A0616A"/>
<path d="M960.943 230.234C960.943 230.234 966.62 230.438 963.814 242.144C961.567 251.515 953.315 310.303 946.864 322.024C948.257 323.279 949.193 324.962 949.525 326.808C949.857 328.654 949.565 330.557 948.695 332.219L922.987 321.616C920.852 315.688 922.505 310.306 924.934 309.829L927.937 292.685L932.364 235.17L956.841 230.014L960.943 230.234Z" fill="#E6E6E6"/>
<path d="M821.273 384.263C820.33 383.005 819.673 381.556 819.35 380.017C819.027 378.479 819.045 376.888 819.403 375.357C819.761 373.826 820.45 372.392 821.423 371.156C822.395 369.921 823.626 368.913 825.03 368.205L852.291 274.121L873.331 284.336L839.918 373.606C840.952 376.043 841.055 378.774 840.21 381.282C839.364 383.791 837.627 385.902 835.329 387.215C833.031 388.529 830.331 388.954 827.74 388.41C825.15 387.866 822.849 386.39 821.273 384.263V384.263Z" fill="#A0616A"/>
<path d="M876.286 228.086C876.286 228.086 871.356 225.262 867.56 236.685C864.522 245.83 840.496 300.115 839.788 313.476C837.942 313.807 836.259 314.742 835.003 316.134C833.747 317.527 832.99 319.298 832.851 321.168L860.282 325.734C865.225 321.826 866.662 316.382 864.851 314.696L871.351 298.549L897.953 247.364L879.886 230.064L876.286 228.086Z" fill="#E6E6E6"/>
<path d="M1078.94 569.295L330.191 569.603C329.875 569.602 329.574 569.476 329.351 569.253C329.128 569.03 329.003 568.727 329.003 568.412C329.003 568.097 329.128 567.795 329.351 567.571C329.574 567.348 329.875 567.222 330.191 567.221L1078.94 566.914C1079.26 566.915 1079.56 567.041 1079.78 567.264C1080 567.487 1080.13 567.79 1080.13 568.105C1080.13 568.42 1080 568.722 1079.78 568.945C1079.56 569.169 1079.26 569.295 1078.94 569.295V569.295Z" fill="#CACACA"/>
<path d="M650.888 516.451C643.231 516.451 635.747 514.18 629.38 509.926C623.014 505.673 618.052 499.626 615.122 492.553C612.192 485.479 611.425 477.695 612.919 470.185C614.413 462.676 618.1 455.778 623.514 450.364C628.928 444.95 635.826 441.263 643.336 439.769C650.845 438.275 658.629 439.042 665.703 441.972C672.777 444.902 678.823 449.864 683.077 456.23C687.331 462.596 689.601 470.081 689.601 477.738C689.589 488.002 685.507 497.842 678.25 505.099C670.992 512.357 661.152 516.439 650.888 516.451V516.451ZM650.888 441.025C643.627 441.025 636.529 443.178 630.492 447.212C624.454 451.246 619.749 456.98 616.97 463.688C614.191 470.397 613.464 477.779 614.881 484.9C616.297 492.022 619.794 498.563 624.928 503.698C630.063 508.832 636.604 512.329 643.726 513.745C650.847 515.162 658.229 514.435 664.938 511.656C671.646 508.877 677.38 504.172 681.414 498.134C685.448 492.097 687.601 484.999 687.601 477.738C687.59 468.004 683.719 458.673 676.836 451.79C669.953 444.907 660.622 441.036 650.888 441.025Z" fill="white"/>
<path d="M648.065 492.81C647.984 492.81 647.904 492.808 647.824 492.804C647.113 492.769 646.419 492.582 645.788 492.254C645.157 491.926 644.604 491.466 644.168 490.904L637.865 482.802C637.467 482.29 637.174 481.705 637.002 481.081C636.83 480.456 636.783 479.803 636.863 479.16C636.944 478.517 637.15 477.896 637.47 477.333C637.79 476.769 638.219 476.275 638.73 475.877L638.957 475.7C639.468 475.302 640.053 475.009 640.678 474.837C641.303 474.665 641.956 474.617 642.599 474.698C643.243 474.778 643.864 474.984 644.427 475.305C644.99 475.626 645.485 476.054 645.883 476.566C646.201 476.975 646.604 477.31 647.064 477.548C647.524 477.787 648.03 477.924 648.547 477.949C649.065 477.974 649.581 477.887 650.062 477.694C650.543 477.501 650.977 477.207 651.333 476.831L664.13 463.322C665.03 462.373 666.271 461.82 667.579 461.785C668.886 461.749 670.155 462.234 671.106 463.132L671.316 463.332C671.786 463.778 672.164 464.312 672.429 464.903C672.693 465.495 672.838 466.133 672.855 466.781C672.873 467.429 672.762 468.074 672.531 468.679C672.299 469.284 671.95 469.837 671.504 470.308L651.646 491.269C651.185 491.756 650.63 492.144 650.014 492.409C649.398 492.674 648.735 492.81 648.065 492.81V492.81Z" fill="#BDC3C7"/>
</g>
<path d="M136.281 653.234H118.047V645.875H136.281C139.812 645.875 142.672 645.312 144.859 644.188C147.047 643.062 148.641 641.5 149.641 639.5C150.672 637.5 151.188 635.219 151.188 632.656C151.188 630.312 150.672 628.109 149.641 626.047C148.641 623.984 147.047 622.328 144.859 621.078C142.672 619.797 139.812 619.156 136.281 619.156H120.156V680H111.109V611.75H136.281C141.438 611.75 145.797 612.641 149.359 614.422C152.922 616.203 155.625 618.672 157.469 621.828C159.312 624.953 160.234 628.531 160.234 632.562C160.234 636.938 159.312 640.672 157.469 643.766C155.625 646.859 152.922 649.219 149.359 650.844C145.797 652.438 141.438 653.234 136.281 653.234ZM179.781 608V680H171.062V608H179.781ZM214.75 680.938C211.219 680.938 208.016 680.344 205.141 679.156C202.297 677.938 199.844 676.234 197.781 674.047C195.75 671.859 194.188 669.266 193.094 666.266C192 663.266 191.453 659.984 191.453 656.422V654.453C191.453 650.328 192.062 646.656 193.281 643.438C194.5 640.188 196.156 637.438 198.25 635.188C200.344 632.938 202.719 631.234 205.375 630.078C208.031 628.922 210.781 628.344 213.625 628.344C217.25 628.344 220.375 628.969 223 630.219C225.656 631.469 227.828 633.219 229.516 635.469C231.203 637.688 232.453 640.312 233.266 643.344C234.078 646.344 234.484 649.625 234.484 653.188V657.078H196.609V650H225.812V649.344C225.688 647.094 225.219 644.906 224.406 642.781C223.625 640.656 222.375 638.906 220.656 637.531C218.938 636.156 216.594 635.469 213.625 635.469C211.656 635.469 209.844 635.891 208.188 636.734C206.531 637.547 205.109 638.766 203.922 640.391C202.734 642.016 201.812 644 201.156 646.344C200.5 648.688 200.172 651.391 200.172 654.453V656.422C200.172 658.828 200.5 661.094 201.156 663.219C201.844 665.312 202.828 667.156 204.109 668.75C205.422 670.344 207 671.594 208.844 672.5C210.719 673.406 212.844 673.859 215.219 673.859C218.281 673.859 220.875 673.234 223 671.984C225.125 670.734 226.984 669.062 228.578 666.969L233.828 671.141C232.734 672.797 231.344 674.375 229.656 675.875C227.969 677.375 225.891 678.594 223.422 679.531C220.984 680.469 218.094 680.938 214.75 680.938ZM274.516 671.328V645.219C274.516 643.219 274.109 641.484 273.297 640.016C272.516 638.516 271.328 637.359 269.734 636.547C268.141 635.734 266.172 635.328 263.828 635.328C261.641 635.328 259.719 635.703 258.062 636.453C256.438 637.203 255.156 638.188 254.219 639.406C253.312 640.625 252.859 641.938 252.859 643.344H244.188C244.188 641.531 244.656 639.734 245.594 637.953C246.531 636.172 247.875 634.562 249.625 633.125C251.406 631.656 253.531 630.5 256 629.656C258.5 628.781 261.281 628.344 264.344 628.344C268.031 628.344 271.281 628.969 274.094 630.219C276.938 631.469 279.156 633.359 280.75 635.891C282.375 638.391 283.188 641.531 283.188 645.312V668.938C283.188 670.625 283.328 672.422 283.609 674.328C283.922 676.234 284.375 677.875 284.969 679.25V680H275.922C275.484 679 275.141 677.672 274.891 676.016C274.641 674.328 274.516 672.766 274.516 671.328ZM276.016 649.25L276.109 655.344H267.344C264.875 655.344 262.672 655.547 260.734 655.953C258.797 656.328 257.172 656.906 255.859 657.688C254.547 658.469 253.547 659.453 252.859 660.641C252.172 661.797 251.828 663.156 251.828 664.719C251.828 666.312 252.188 667.766 252.906 669.078C253.625 670.391 254.703 671.438 256.141 672.219C257.609 672.969 259.406 673.344 261.531 673.344C264.188 673.344 266.531 672.781 268.562 671.656C270.594 670.531 272.203 669.156 273.391 667.531C274.609 665.906 275.266 664.328 275.359 662.797L279.062 666.969C278.844 668.281 278.25 669.734 277.281 671.328C276.312 672.922 275.016 674.453 273.391 675.922C271.797 677.359 269.891 678.562 267.672 679.531C265.484 680.469 263.016 680.938 260.266 680.938C256.828 680.938 253.812 680.266 251.219 678.922C248.656 677.578 246.656 675.781 245.219 673.531C243.812 671.25 243.109 668.703 243.109 665.891C243.109 663.172 243.641 660.781 244.703 658.719C245.766 656.625 247.297 654.891 249.297 653.516C251.297 652.109 253.703 651.047 256.516 650.328C259.328 649.609 262.469 649.25 265.938 649.25H276.016ZM326.359 666.547C326.359 665.297 326.078 664.141 325.516 663.078C324.984 661.984 323.875 661 322.188 660.125C320.531 659.219 318.031 658.438 314.688 657.781C311.875 657.188 309.328 656.484 307.047 655.672C304.797 654.859 302.875 653.875 301.281 652.719C299.719 651.562 298.516 650.203 297.672 648.641C296.828 647.078 296.406 645.25 296.406 643.156C296.406 641.156 296.844 639.266 297.719 637.484C298.625 635.703 299.891 634.125 301.516 632.75C303.172 631.375 305.156 630.297 307.469 629.516C309.781 628.734 312.359 628.344 315.203 628.344C319.266 628.344 322.734 629.062 325.609 630.5C328.484 631.938 330.688 633.859 332.219 636.266C333.75 638.641 334.516 641.281 334.516 644.188H325.844C325.844 642.781 325.422 641.422 324.578 640.109C323.766 638.766 322.562 637.656 320.969 636.781C319.406 635.906 317.484 635.469 315.203 635.469C312.797 635.469 310.844 635.844 309.344 636.594C307.875 637.312 306.797 638.234 306.109 639.359C305.453 640.484 305.125 641.672 305.125 642.922C305.125 643.859 305.281 644.703 305.594 645.453C305.938 646.172 306.531 646.844 307.375 647.469C308.219 648.062 309.406 648.625 310.938 649.156C312.469 649.688 314.422 650.219 316.797 650.75C320.953 651.688 324.375 652.812 327.062 654.125C329.75 655.438 331.75 657.047 333.062 658.953C334.375 660.859 335.031 663.172 335.031 665.891C335.031 668.109 334.562 670.141 333.625 671.984C332.719 673.828 331.391 675.422 329.641 676.766C327.922 678.078 325.859 679.109 323.453 679.859C321.078 680.578 318.406 680.938 315.438 680.938C310.969 680.938 307.188 680.141 304.094 678.547C301 676.953 298.656 674.891 297.062 672.359C295.469 669.828 294.672 667.156 294.672 664.344H303.391C303.516 666.719 304.203 668.609 305.453 670.016C306.703 671.391 308.234 672.375 310.047 672.969C311.859 673.531 313.656 673.812 315.438 673.812C317.812 673.812 319.797 673.5 321.391 672.875C323.016 672.25 324.25 671.391 325.094 670.297C325.938 669.203 326.359 667.953 326.359 666.547ZM367.469 680.938C363.938 680.938 360.734 680.344 357.859 679.156C355.016 677.938 352.562 676.234 350.5 674.047C348.469 671.859 346.906 669.266 345.812 666.266C344.719 663.266 344.172 659.984 344.172 656.422V654.453C344.172 650.328 344.781 646.656 346 643.438C347.219 640.188 348.875 637.438 350.969 635.188C353.062 632.938 355.438 631.234 358.094 630.078C360.75 628.922 363.5 628.344 366.344 628.344C369.969 628.344 373.094 628.969 375.719 630.219C378.375 631.469 380.547 633.219 382.234 635.469C383.922 637.688 385.172 640.312 385.984 643.344C386.797 646.344 387.203 649.625 387.203 653.188V657.078H349.328V650H378.531V649.344C378.406 647.094 377.938 644.906 377.125 642.781C376.344 640.656 375.094 638.906 373.375 637.531C371.656 636.156 369.312 635.469 366.344 635.469C364.375 635.469 362.562 635.891 360.906 636.734C359.25 637.547 357.828 638.766 356.641 640.391C355.453 642.016 354.531 644 353.875 646.344C353.219 648.688 352.891 651.391 352.891 654.453V656.422C352.891 658.828 353.219 661.094 353.875 663.219C354.562 665.312 355.547 667.156 356.828 668.75C358.141 670.344 359.719 671.594 361.562 672.5C363.438 673.406 365.562 673.859 367.938 673.859C371 673.859 373.594 673.234 375.719 671.984C377.844 670.734 379.703 669.062 381.297 666.969L386.547 671.141C385.453 672.797 384.062 674.375 382.375 675.875C380.688 677.375 378.609 678.594 376.141 679.531C373.703 680.469 370.812 680.938 367.469 680.938ZM441.438 673.812C443.5 673.812 445.406 673.391 447.156 672.547C448.906 671.703 450.344 670.547 451.469 669.078C452.594 667.578 453.234 665.875 453.391 663.969H461.641C461.484 666.969 460.469 669.766 458.594 672.359C456.75 674.922 454.328 677 451.328 678.594C448.328 680.156 445.031 680.938 441.438 680.938C437.625 680.938 434.297 680.266 431.453 678.922C428.641 677.578 426.297 675.734 424.422 673.391C422.578 671.047 421.188 668.359 420.25 665.328C419.344 662.266 418.891 659.031 418.891 655.625V653.656C418.891 650.25 419.344 647.031 420.25 644C421.188 640.938 422.578 638.234 424.422 635.891C426.297 633.547 428.641 631.703 431.453 630.359C434.297 629.016 437.625 628.344 441.438 628.344C445.406 628.344 448.875 629.156 451.844 630.781C454.812 632.375 457.141 634.562 458.828 637.344C460.547 640.094 461.484 643.219 461.641 646.719H453.391C453.234 644.625 452.641 642.734 451.609 641.047C450.609 639.359 449.234 638.016 447.484 637.016C445.766 635.984 443.75 635.469 441.438 635.469C438.781 635.469 436.547 636 434.734 637.062C432.953 638.094 431.531 639.5 430.469 641.281C429.438 643.031 428.688 644.984 428.219 647.141C427.781 649.266 427.562 651.438 427.562 653.656V655.625C427.562 657.844 427.781 660.031 428.219 662.188C428.656 664.344 429.391 666.297 430.422 668.047C431.484 669.797 432.906 671.203 434.688 672.266C436.5 673.297 438.75 673.812 441.438 673.812ZM480.062 608V680H471.391V608H480.062ZM478 652.719L474.391 652.578C474.422 649.109 474.938 645.906 475.938 642.969C476.938 640 478.344 637.422 480.156 635.234C481.969 633.047 484.125 631.359 486.625 630.172C489.156 628.953 491.953 628.344 495.016 628.344C497.516 628.344 499.766 628.688 501.766 629.375C503.766 630.031 505.469 631.094 506.875 632.562C508.312 634.031 509.406 635.938 510.156 638.281C510.906 640.594 511.281 643.422 511.281 646.766V680H502.562V646.672C502.562 644.016 502.172 641.891 501.391 640.297C500.609 638.672 499.469 637.5 497.969 636.781C496.469 636.031 494.625 635.656 492.438 635.656C490.281 635.656 488.312 636.109 486.531 637.016C484.781 637.922 483.266 639.172 481.984 640.766C480.734 642.359 479.75 644.188 479.031 646.25C478.344 648.281 478 650.438 478 652.719ZM521.969 655.203V654.125C521.969 650.469 522.5 647.078 523.562 643.953C524.625 640.797 526.156 638.062 528.156 635.75C530.156 633.406 532.578 631.594 535.422 630.312C538.266 629 541.453 628.344 544.984 628.344C548.547 628.344 551.75 629 554.594 630.312C557.469 631.594 559.906 633.406 561.906 635.75C563.938 638.062 565.484 640.797 566.547 643.953C567.609 647.078 568.141 650.469 568.141 654.125V655.203C568.141 658.859 567.609 662.25 566.547 665.375C565.484 668.5 563.938 671.234 561.906 673.578C559.906 675.891 557.484 677.703 554.641 679.016C551.828 680.297 548.641 680.938 545.078 680.938C541.516 680.938 538.312 680.297 535.469 679.016C532.625 677.703 530.188 675.891 528.156 673.578C526.156 671.234 524.625 668.5 523.562 665.375C522.5 662.25 521.969 658.859 521.969 655.203ZM530.641 654.125V655.203C530.641 657.734 530.938 660.125 531.531 662.375C532.125 664.594 533.016 666.562 534.203 668.281C535.422 670 536.938 671.359 538.75 672.359C540.562 673.328 542.672 673.812 545.078 673.812C547.453 673.812 549.531 673.328 551.312 672.359C553.125 671.359 554.625 670 555.812 668.281C557 666.562 557.891 664.594 558.484 662.375C559.109 660.125 559.422 657.734 559.422 655.203V654.125C559.422 651.625 559.109 649.266 558.484 647.047C557.891 644.797 556.984 642.812 555.766 641.094C554.578 639.344 553.078 637.969 551.266 636.969C549.484 635.969 547.391 635.469 544.984 635.469C542.609 635.469 540.516 635.969 538.703 636.969C536.922 637.969 535.422 639.344 534.203 641.094C533.016 642.812 532.125 644.797 531.531 647.047C530.938 649.266 530.641 651.625 530.641 654.125ZM576.719 655.203V654.125C576.719 650.469 577.25 647.078 578.312 643.953C579.375 640.797 580.906 638.062 582.906 635.75C584.906 633.406 587.328 631.594 590.172 630.312C593.016 629 596.203 628.344 599.734 628.344C603.297 628.344 606.5 629 609.344 630.312C612.219 631.594 614.656 633.406 616.656 635.75C618.688 638.062 620.234 640.797 621.297 643.953C622.359 647.078 622.891 650.469 622.891 654.125V655.203C622.891 658.859 622.359 662.25 621.297 665.375C620.234 668.5 618.688 671.234 616.656 673.578C614.656 675.891 612.234 677.703 609.391 679.016C606.578 680.297 603.391 680.938 599.828 680.938C596.266 680.938 593.062 680.297 590.219 679.016C587.375 677.703 584.938 675.891 582.906 673.578C580.906 671.234 579.375 668.5 578.312 665.375C577.25 662.25 576.719 658.859 576.719 655.203ZM585.391 654.125V655.203C585.391 657.734 585.688 660.125 586.281 662.375C586.875 664.594 587.766 666.562 588.953 668.281C590.172 670 591.688 671.359 593.5 672.359C595.312 673.328 597.422 673.812 599.828 673.812C602.203 673.812 604.281 673.328 606.062 672.359C607.875 671.359 609.375 670 610.562 668.281C611.75 666.562 612.641 664.594 613.234 662.375C613.859 660.125 614.172 657.734 614.172 655.203V654.125C614.172 651.625 613.859 649.266 613.234 647.047C612.641 644.797 611.734 642.812 610.516 641.094C609.328 639.344 607.828 637.969 606.016 636.969C604.234 635.969 602.141 635.469 599.734 635.469C597.359 635.469 595.266 635.969 593.453 636.969C591.672 637.969 590.172 639.344 588.953 641.094C587.766 642.812 586.875 644.797 586.281 647.047C585.688 649.266 585.391 651.625 585.391 654.125ZM663.297 666.547C663.297 665.297 663.016 664.141 662.453 663.078C661.922 661.984 660.812 661 659.125 660.125C657.469 659.219 654.969 658.438 651.625 657.781C648.812 657.188 646.266 656.484 643.984 655.672C641.734 654.859 639.812 653.875 638.219 652.719C636.656 651.562 635.453 650.203 634.609 648.641C633.766 647.078 633.344 645.25 633.344 643.156C633.344 641.156 633.781 639.266 634.656 637.484C635.562 635.703 636.828 634.125 638.453 632.75C640.109 631.375 642.094 630.297 644.406 629.516C646.719 628.734 649.297 628.344 652.141 628.344C656.203 628.344 659.672 629.062 662.547 630.5C665.422 631.938 667.625 633.859 669.156 636.266C670.688 638.641 671.453 641.281 671.453 644.188H662.781C662.781 642.781 662.359 641.422 661.516 640.109C660.703 638.766 659.5 637.656 657.906 636.781C656.344 635.906 654.422 635.469 652.141 635.469C649.734 635.469 647.781 635.844 646.281 636.594C644.812 637.312 643.734 638.234 643.047 639.359C642.391 640.484 642.062 641.672 642.062 642.922C642.062 643.859 642.219 644.703 642.531 645.453C642.875 646.172 643.469 646.844 644.312 647.469C645.156 648.062 646.344 648.625 647.875 649.156C649.406 649.688 651.359 650.219 653.734 650.75C657.891 651.688 661.312 652.812 664 654.125C666.688 655.438 668.688 657.047 670 658.953C671.312 660.859 671.969 663.172 671.969 665.891C671.969 668.109 671.5 670.141 670.562 671.984C669.656 673.828 668.328 675.422 666.578 676.766C664.859 678.078 662.797 679.109 660.391 679.859C658.016 680.578 655.344 680.938 652.375 680.938C647.906 680.938 644.125 680.141 641.031 678.547C637.938 676.953 635.594 674.891 634 672.359C632.406 669.828 631.609 667.156 631.609 664.344H640.328C640.453 666.719 641.141 668.609 642.391 670.016C643.641 671.391 645.172 672.375 646.984 672.969C648.797 673.531 650.594 673.812 652.375 673.812C654.75 673.812 656.734 673.5 658.328 672.875C659.953 672.25 661.188 671.391 662.031 670.297C662.875 669.203 663.297 667.953 663.297 666.547ZM704.406 680.938C700.875 680.938 697.672 680.344 694.797 679.156C691.953 677.938 689.5 676.234 687.438 674.047C685.406 671.859 683.844 669.266 682.75 666.266C681.656 663.266 681.109 659.984 681.109 656.422V654.453C681.109 650.328 681.719 646.656 682.938 643.438C684.156 640.188 685.812 637.438 687.906 635.188C690 632.938 692.375 631.234 695.031 630.078C697.688 628.922 700.438 628.344 703.281 628.344C706.906 628.344 710.031 628.969 712.656 630.219C715.312 631.469 717.484 633.219 719.172 635.469C720.859 637.688 722.109 640.312 722.922 643.344C723.734 646.344 724.141 649.625 724.141 653.188V657.078H686.266V650H715.469V649.344C715.344 647.094 714.875 644.906 714.062 642.781C713.281 640.656 712.031 638.906 710.312 637.531C708.594 636.156 706.25 635.469 703.281 635.469C701.312 635.469 699.5 635.891 697.844 636.734C696.188 637.547 694.766 638.766 693.578 640.391C692.391 642.016 691.469 644 690.812 646.344C690.156 648.688 689.828 651.391 689.828 654.453V656.422C689.828 658.828 690.156 661.094 690.812 663.219C691.5 665.312 692.484 667.156 693.766 668.75C695.078 670.344 696.656 671.594 698.5 672.5C700.375 673.406 702.5 673.859 704.875 673.859C707.938 673.859 710.531 673.234 712.656 671.984C714.781 670.734 716.641 669.062 718.234 666.969L723.484 671.141C722.391 672.797 721 674.375 719.312 675.875C717.625 677.375 715.547 678.594 713.078 679.531C710.641 680.469 707.75 680.938 704.406 680.938ZM787.984 671.328V645.219C787.984 643.219 787.578 641.484 786.766 640.016C785.984 638.516 784.797 637.359 783.203 636.547C781.609 635.734 779.641 635.328 777.297 635.328C775.109 635.328 773.188 635.703 771.531 636.453C769.906 637.203 768.625 638.188 767.688 639.406C766.781 640.625 766.328 641.938 766.328 643.344H757.656C757.656 641.531 758.125 639.734 759.062 637.953C760 636.172 761.344 634.562 763.094 633.125C764.875 631.656 767 630.5 769.469 629.656C771.969 628.781 774.75 628.344 777.812 628.344C781.5 628.344 784.75 628.969 787.562 630.219C790.406 631.469 792.625 633.359 794.219 635.891C795.844 638.391 796.656 641.531 796.656 645.312V668.938C796.656 670.625 796.797 672.422 797.078 674.328C797.391 676.234 797.844 677.875 798.438 679.25V680H789.391C788.953 679 788.609 677.672 788.359 676.016C788.109 674.328 787.984 672.766 787.984 671.328ZM789.484 649.25L789.578 655.344H780.812C778.344 655.344 776.141 655.547 774.203 655.953C772.266 656.328 770.641 656.906 769.328 657.688C768.016 658.469 767.016 659.453 766.328 660.641C765.641 661.797 765.297 663.156 765.297 664.719C765.297 666.312 765.656 667.766 766.375 669.078C767.094 670.391 768.172 671.438 769.609 672.219C771.078 672.969 772.875 673.344 775 673.344C777.656 673.344 780 672.781 782.031 671.656C784.062 670.531 785.672 669.156 786.859 667.531C788.078 665.906 788.734 664.328 788.828 662.797L792.531 666.969C792.312 668.281 791.719 669.734 790.75 671.328C789.781 672.922 788.484 674.453 786.859 675.922C785.266 677.359 783.359 678.562 781.141 679.531C778.953 680.469 776.484 680.938 773.734 680.938C770.297 680.938 767.281 680.266 764.688 678.922C762.125 677.578 760.125 675.781 758.688 673.531C757.281 671.25 756.578 668.703 756.578 665.891C756.578 663.172 757.109 660.781 758.172 658.719C759.234 656.625 760.766 654.891 762.766 653.516C764.766 652.109 767.172 651.047 769.984 650.328C772.797 649.609 775.938 649.25 779.406 649.25H789.484ZM854.406 673.812C856.469 673.812 858.375 673.391 860.125 672.547C861.875 671.703 863.312 670.547 864.438 669.078C865.562 667.578 866.203 665.875 866.359 663.969H874.609C874.453 666.969 873.438 669.766 871.562 672.359C869.719 674.922 867.297 677 864.297 678.594C861.297 680.156 858 680.938 854.406 680.938C850.594 680.938 847.266 680.266 844.422 678.922C841.609 677.578 839.266 675.734 837.391 673.391C835.547 671.047 834.156 668.359 833.219 665.328C832.312 662.266 831.859 659.031 831.859 655.625V653.656C831.859 650.25 832.312 647.031 833.219 644C834.156 640.938 835.547 638.234 837.391 635.891C839.266 633.547 841.609 631.703 844.422 630.359C847.266 629.016 850.594 628.344 854.406 628.344C858.375 628.344 861.844 629.156 864.812 630.781C867.781 632.375 870.109 634.562 871.797 637.344C873.516 640.094 874.453 643.219 874.609 646.719H866.359C866.203 644.625 865.609 642.734 864.578 641.047C863.578 639.359 862.203 638.016 860.453 637.016C858.734 635.984 856.719 635.469 854.406 635.469C851.75 635.469 849.516 636 847.703 637.062C845.922 638.094 844.5 639.5 843.438 641.281C842.406 643.031 841.656 644.984 841.188 647.141C840.75 649.266 840.531 651.438 840.531 653.656V655.625C840.531 657.844 840.75 660.031 841.188 662.188C841.625 664.344 842.359 666.297 843.391 668.047C844.453 669.797 845.875 671.203 847.656 672.266C849.469 673.297 851.719 673.812 854.406 673.812ZM893.031 608V680H884.359V608H893.031ZM890.969 652.719L887.359 652.578C887.391 649.109 887.906 645.906 888.906 642.969C889.906 640 891.312 637.422 893.125 635.234C894.938 633.047 897.094 631.359 899.594 630.172C902.125 628.953 904.922 628.344 907.984 628.344C910.484 628.344 912.734 628.688 914.734 629.375C916.734 630.031 918.438 631.094 919.844 632.562C921.281 634.031 922.375 635.938 923.125 638.281C923.875 640.594 924.25 643.422 924.25 646.766V680H915.531V646.672C915.531 644.016 915.141 641.891 914.359 640.297C913.578 638.672 912.438 637.5 910.938 636.781C909.438 636.031 907.594 635.656 905.406 635.656C903.25 635.656 901.281 636.109 899.5 637.016C897.75 637.922 896.234 639.172 894.953 640.766C893.703 642.359 892.719 644.188 892 646.25C891.312 648.281 890.969 650.438 890.969 652.719ZM967.141 671.328V645.219C967.141 643.219 966.734 641.484 965.922 640.016C965.141 638.516 963.953 637.359 962.359 636.547C960.766 635.734 958.797 635.328 956.453 635.328C954.266 635.328 952.344 635.703 950.688 636.453C949.062 637.203 947.781 638.188 946.844 639.406C945.938 640.625 945.484 641.938 945.484 643.344H936.812C936.812 641.531 937.281 639.734 938.219 637.953C939.156 636.172 940.5 634.562 942.25 633.125C944.031 631.656 946.156 630.5 948.625 629.656C951.125 628.781 953.906 628.344 956.969 628.344C960.656 628.344 963.906 628.969 966.719 630.219C969.562 631.469 971.781 633.359 973.375 635.891C975 638.391 975.812 641.531 975.812 645.312V668.938C975.812 670.625 975.953 672.422 976.234 674.328C976.547 676.234 977 677.875 977.594 679.25V680H968.547C968.109 679 967.766 677.672 967.516 676.016C967.266 674.328 967.141 672.766 967.141 671.328ZM968.641 649.25L968.734 655.344H959.969C957.5 655.344 955.297 655.547 953.359 655.953C951.422 656.328 949.797 656.906 948.484 657.688C947.172 658.469 946.172 659.453 945.484 660.641C944.797 661.797 944.453 663.156 944.453 664.719C944.453 666.312 944.812 667.766 945.531 669.078C946.25 670.391 947.328 671.438 948.766 672.219C950.234 672.969 952.031 673.344 954.156 673.344C956.812 673.344 959.156 672.781 961.188 671.656C963.219 670.531 964.828 669.156 966.016 667.531C967.234 665.906 967.891 664.328 967.984 662.797L971.688 666.969C971.469 668.281 970.875 669.734 969.906 671.328C968.938 672.922 967.641 674.453 966.016 675.922C964.422 677.359 962.516 678.562 960.297 679.531C958.109 680.469 955.641 680.938 952.891 680.938C949.453 680.938 946.438 680.266 943.844 678.922C941.281 677.578 939.281 675.781 937.844 673.531C936.438 671.25 935.734 668.703 935.734 665.891C935.734 663.172 936.266 660.781 937.328 658.719C938.391 656.625 939.922 654.891 941.922 653.516C943.922 652.109 946.328 651.047 949.141 650.328C951.953 649.609 955.094 649.25 958.562 649.25H968.641ZM1010.69 629.281V635.938H983.266V629.281H1010.69ZM992.547 616.953H1001.22V667.438C1001.22 669.156 1001.48 670.453 1002.02 671.328C1002.55 672.203 1003.23 672.781 1004.08 673.062C1004.92 673.344 1005.83 673.484 1006.8 673.484C1007.52 673.484 1008.27 673.422 1009.05 673.297C1009.86 673.141 1010.47 673.016 1010.88 672.922L1010.92 680C1010.23 680.219 1009.33 680.422 1008.2 680.609C1007.11 680.828 1005.78 680.938 1004.22 680.938C1002.09 680.938 1000.14 680.516 998.359 679.672C996.578 678.828 995.156 677.422 994.094 675.453C993.062 673.453 992.547 670.766 992.547 667.391V616.953ZM1053.34 639.031V699.5H1044.62V629.281H1052.59L1053.34 639.031ZM1087.52 654.219V655.203C1087.52 658.891 1087.08 662.312 1086.2 665.469C1085.33 668.594 1084.05 671.312 1082.36 673.625C1080.7 675.938 1078.66 677.734 1076.22 679.016C1073.78 680.297 1070.98 680.938 1067.83 680.938C1064.61 680.938 1061.77 680.406 1059.3 679.344C1056.83 678.281 1054.73 676.734 1053.02 674.703C1051.3 672.672 1049.92 670.234 1048.89 667.391C1047.89 664.547 1047.2 661.344 1046.83 657.781V652.531C1047.2 648.781 1047.91 645.422 1048.94 642.453C1049.97 639.484 1051.33 636.953 1053.02 634.859C1054.73 632.734 1056.81 631.125 1059.25 630.031C1061.69 628.906 1064.5 628.344 1067.69 628.344C1070.88 628.344 1073.7 628.969 1076.17 630.219C1078.64 631.438 1080.72 633.188 1082.41 635.469C1084.09 637.75 1085.36 640.484 1086.2 643.672C1087.08 646.828 1087.52 650.344 1087.52 654.219ZM1078.8 655.203V654.219C1078.8 651.688 1078.53 649.312 1078 647.094C1077.47 644.844 1076.64 642.875 1075.52 641.188C1074.42 639.469 1073.02 638.125 1071.3 637.156C1069.58 636.156 1067.53 635.656 1065.16 635.656C1062.97 635.656 1061.06 636.031 1059.44 636.781C1057.84 637.531 1056.48 638.547 1055.36 639.828C1054.23 641.078 1053.31 642.516 1052.59 644.141C1051.91 645.734 1051.39 647.391 1051.05 649.109V661.25C1051.67 663.438 1052.55 665.5 1053.67 667.438C1054.8 669.344 1056.3 670.891 1058.17 672.078C1060.05 673.234 1062.41 673.812 1065.25 673.812C1067.59 673.812 1069.61 673.328 1071.3 672.359C1073.02 671.359 1074.42 670 1075.52 668.281C1076.64 666.562 1077.47 664.594 1078 662.375C1078.53 660.125 1078.8 657.734 1078.8 655.203ZM1107.25 637.25V680H1098.58V629.281H1107.02L1107.25 637.25ZM1123.09 629L1123.05 637.062C1122.33 636.906 1121.64 636.812 1120.98 636.781C1120.36 636.719 1119.64 636.688 1118.83 636.688C1116.83 636.688 1115.06 637 1113.53 637.625C1112 638.25 1110.7 639.125 1109.64 640.25C1108.58 641.375 1107.73 642.719 1107.11 644.281C1106.52 645.812 1106.12 647.5 1105.94 649.344L1103.5 650.75C1103.5 647.688 1103.8 644.812 1104.39 642.125C1105.02 639.438 1105.97 637.062 1107.25 635C1108.53 632.906 1110.16 631.281 1112.12 630.125C1114.12 628.938 1116.5 628.344 1119.25 628.344C1119.88 628.344 1120.59 628.422 1121.41 628.578C1122.22 628.703 1122.78 628.844 1123.09 629ZM1127.88 655.203V654.125C1127.88 650.469 1128.41 647.078 1129.47 643.953C1130.53 640.797 1132.06 638.062 1134.06 635.75C1136.06 633.406 1138.48 631.594 1141.33 630.312C1144.17 629 1147.36 628.344 1150.89 628.344C1154.45 628.344 1157.66 629 1160.5 630.312C1163.38 631.594 1165.81 633.406 1167.81 635.75C1169.84 638.062 1171.39 640.797 1172.45 643.953C1173.52 647.078 1174.05 650.469 1174.05 654.125V655.203C1174.05 658.859 1173.52 662.25 1172.45 665.375C1171.39 668.5 1169.84 671.234 1167.81 673.578C1165.81 675.891 1163.39 677.703 1160.55 679.016C1157.73 680.297 1154.55 680.938 1150.98 680.938C1147.42 680.938 1144.22 680.297 1141.38 679.016C1138.53 677.703 1136.09 675.891 1134.06 673.578C1132.06 671.234 1130.53 668.5 1129.47 665.375C1128.41 662.25 1127.88 658.859 1127.88 655.203ZM1136.55 654.125V655.203C1136.55 657.734 1136.84 660.125 1137.44 662.375C1138.03 664.594 1138.92 666.562 1140.11 668.281C1141.33 670 1142.84 671.359 1144.66 672.359C1146.47 673.328 1148.58 673.812 1150.98 673.812C1153.36 673.812 1155.44 673.328 1157.22 672.359C1159.03 671.359 1160.53 670 1161.72 668.281C1162.91 666.562 1163.8 664.594 1164.39 662.375C1165.02 660.125 1165.33 657.734 1165.33 655.203V654.125C1165.33 651.625 1165.02 649.266 1164.39 647.047C1163.8 644.797 1162.89 642.812 1161.67 641.094C1160.48 639.344 1158.98 637.969 1157.17 636.969C1155.39 635.969 1153.3 635.469 1150.89 635.469C1148.52 635.469 1146.42 635.969 1144.61 636.969C1142.83 637.969 1141.33 639.344 1140.11 641.094C1138.92 642.812 1138.03 644.797 1137.44 647.047C1136.84 649.266 1136.55 651.625 1136.55 654.125ZM1196.5 680H1187.83V624.875C1187.83 621.031 1188.58 617.781 1190.08 615.125C1191.58 612.469 1193.72 610.453 1196.5 609.078C1199.28 607.703 1202.58 607.016 1206.39 607.016C1208.64 607.016 1210.84 607.297 1213 607.859C1215.16 608.391 1217.38 609.062 1219.66 609.875L1218.2 617.188C1216.77 616.625 1215.09 616.094 1213.19 615.594C1211.31 615.062 1209.25 614.797 1207 614.797C1203.28 614.797 1200.59 615.641 1198.94 617.328C1197.31 618.984 1196.5 621.5 1196.5 624.875V680ZM1206.86 629.281V635.938H1179.81V629.281H1206.86ZM1223.92 629.281V680H1215.25V629.281H1223.92ZM1247.59 608V680H1238.88V608H1247.59ZM1282.56 680.938C1279.03 680.938 1275.83 680.344 1272.95 679.156C1270.11 677.938 1267.66 676.234 1265.59 674.047C1263.56 671.859 1262 669.266 1260.91 666.266C1259.81 663.266 1259.27 659.984 1259.27 656.422V654.453C1259.27 650.328 1259.88 646.656 1261.09 643.438C1262.31 640.188 1263.97 637.438 1266.06 635.188C1268.16 632.938 1270.53 631.234 1273.19 630.078C1275.84 628.922 1278.59 628.344 1281.44 628.344C1285.06 628.344 1288.19 628.969 1290.81 630.219C1293.47 631.469 1295.64 633.219 1297.33 635.469C1299.02 637.688 1300.27 640.312 1301.08 643.344C1301.89 646.344 1302.3 649.625 1302.3 653.188V657.078H1264.42V650H1293.62V649.344C1293.5 647.094 1293.03 644.906 1292.22 642.781C1291.44 640.656 1290.19 638.906 1288.47 637.531C1286.75 636.156 1284.41 635.469 1281.44 635.469C1279.47 635.469 1277.66 635.891 1276 636.734C1274.34 637.547 1272.92 638.766 1271.73 640.391C1270.55 642.016 1269.62 644 1268.97 646.344C1268.31 648.688 1267.98 651.391 1267.98 654.453V656.422C1267.98 658.828 1268.31 661.094 1268.97 663.219C1269.66 665.312 1270.64 667.156 1271.92 668.75C1273.23 670.344 1274.81 671.594 1276.66 672.5C1278.53 673.406 1280.66 673.859 1283.03 673.859C1286.09 673.859 1288.69 673.234 1290.81 671.984C1292.94 670.734 1294.8 669.062 1296.39 666.969L1301.64 671.141C1300.55 672.797 1299.16 674.375 1297.47 675.875C1295.78 677.375 1293.7 678.594 1291.23 679.531C1288.8 680.469 1285.91 680.938 1282.56 680.938ZM39.625 793H30.9531V736.938C30.9531 733.281 31.6094 730.203 32.9219 727.703C34.2656 725.172 36.1875 723.266 38.6875 721.984C41.1875 720.672 44.1562 720.016 47.5938 720.016C48.5938 720.016 49.5938 720.078 50.5938 720.203C51.625 720.328 52.625 720.516 53.5938 720.766L53.125 727.844C52.4688 727.688 51.7188 727.578 50.875 727.516C50.0625 727.453 49.25 727.422 48.4375 727.422C46.5938 727.422 45 727.797 43.6562 728.547C42.3438 729.266 41.3438 730.328 40.6562 731.734C39.9688 733.141 39.625 734.875 39.625 736.938V793ZM50.4062 742.281V748.938H22.9375V742.281H50.4062ZM68.7344 750.25V793H60.0625V742.281H68.5L68.7344 750.25ZM84.5781 742L84.5312 750.062C83.8125 749.906 83.125 749.812 82.4688 749.781C81.8438 749.719 81.125 749.688 80.3125 749.688C78.3125 749.688 76.5469 750 75.0156 750.625C73.4844 751.25 72.1875 752.125 71.125 753.25C70.0625 754.375 69.2188 755.719 68.5938 757.281C68 758.812 67.6094 760.5 67.4219 762.344L64.9844 763.75C64.9844 760.688 65.2812 757.812 65.875 755.125C66.5 752.438 67.4531 750.062 68.7344 748C70.0156 745.906 71.6406 744.281 73.6094 743.125C75.6094 741.938 77.9844 741.344 80.7344 741.344C81.3594 741.344 82.0781 741.422 82.8906 741.578C83.7031 741.703 84.2656 741.844 84.5781 742ZM89.3594 768.203V767.125C89.3594 763.469 89.8906 760.078 90.9531 756.953C92.0156 753.797 93.5469 751.062 95.5469 748.75C97.5469 746.406 99.9688 744.594 102.812 743.312C105.656 742 108.844 741.344 112.375 741.344C115.938 741.344 119.141 742 121.984 743.312C124.859 744.594 127.297 746.406 129.297 748.75C131.328 751.062 132.875 753.797 133.938 756.953C135 760.078 135.531 763.469 135.531 767.125V768.203C135.531 771.859 135 775.25 133.938 778.375C132.875 781.5 131.328 784.234 129.297 786.578C127.297 788.891 124.875 790.703 122.031 792.016C119.219 793.297 116.031 793.938 112.469 793.938C108.906 793.938 105.703 793.297 102.859 792.016C100.016 790.703 97.5781 788.891 95.5469 786.578C93.5469 784.234 92.0156 781.5 90.9531 778.375C89.8906 775.25 89.3594 771.859 89.3594 768.203ZM98.0312 767.125V768.203C98.0312 770.734 98.3281 773.125 98.9219 775.375C99.5156 777.594 100.406 779.562 101.594 781.281C102.812 783 104.328 784.359 106.141 785.359C107.953 786.328 110.062 786.812 112.469 786.812C114.844 786.812 116.922 786.328 118.703 785.359C120.516 784.359 122.016 783 123.203 781.281C124.391 779.562 125.281 777.594 125.875 775.375C126.5 773.125 126.812 770.734 126.812 768.203V767.125C126.812 764.625 126.5 762.266 125.875 760.047C125.281 757.797 124.375 755.812 123.156 754.094C121.969 752.344 120.469 750.969 118.656 749.969C116.875 748.969 114.781 748.469 112.375 748.469C110 748.469 107.906 748.969 106.094 749.969C104.312 750.969 102.812 752.344 101.594 754.094C100.406 755.812 99.5156 757.797 98.9219 760.047C98.3281 762.266 98.0312 764.625 98.0312 767.125ZM155.031 752.359V793H146.312V742.281H154.562L155.031 752.359ZM153.25 765.719L149.219 765.578C149.25 762.109 149.703 758.906 150.578 755.969C151.453 753 152.75 750.422 154.469 748.234C156.188 746.047 158.328 744.359 160.891 743.172C163.453 741.953 166.422 741.344 169.797 741.344C172.172 741.344 174.359 741.688 176.359 742.375C178.359 743.031 180.094 744.078 181.562 745.516C183.031 746.953 184.172 748.797 184.984 751.047C185.797 753.297 186.203 756.016 186.203 759.203V793H177.531V759.625C177.531 756.969 177.078 754.844 176.172 753.25C175.297 751.656 174.047 750.5 172.422 749.781C170.797 749.031 168.891 748.656 166.703 748.656C164.141 748.656 162 749.109 160.281 750.016C158.562 750.922 157.188 752.172 156.156 753.766C155.125 755.359 154.375 757.188 153.906 759.25C153.469 761.281 153.25 763.438 153.25 765.719ZM186.109 760.938L180.297 762.719C180.328 759.938 180.781 757.266 181.656 754.703C182.562 752.141 183.859 749.859 185.547 747.859C187.266 745.859 189.375 744.281 191.875 743.125C194.375 741.938 197.234 741.344 200.453 741.344C203.172 741.344 205.578 741.703 207.672 742.422C209.797 743.141 211.578 744.25 213.016 745.75C214.484 747.219 215.594 749.109 216.344 751.422C217.094 753.734 217.469 756.484 217.469 759.672V793H208.75V759.578C208.75 756.734 208.297 754.531 207.391 752.969C206.516 751.375 205.266 750.266 203.641 749.641C202.047 748.984 200.141 748.656 197.922 748.656C196.016 748.656 194.328 748.984 192.859 749.641C191.391 750.297 190.156 751.203 189.156 752.359C188.156 753.484 187.391 754.781 186.859 756.25C186.359 757.719 186.109 759.281 186.109 760.938ZM275.641 742.281V748.938H248.219V742.281H275.641ZM257.5 729.953H266.172V780.438C266.172 782.156 266.438 783.453 266.969 784.328C267.5 785.203 268.188 785.781 269.031 786.062C269.875 786.344 270.781 786.484 271.75 786.484C272.469 786.484 273.219 786.422 274 786.297C274.812 786.141 275.422 786.016 275.828 785.922L275.875 793C275.188 793.219 274.281 793.422 273.156 793.609C272.062 793.828 270.734 793.938 269.172 793.938C267.047 793.938 265.094 793.516 263.312 792.672C261.531 791.828 260.109 790.422 259.047 788.453C258.016 786.453 257.5 783.766 257.5 780.391V729.953ZM294.484 721V793H285.812V721H294.484ZM292.422 765.719L288.812 765.578C288.844 762.109 289.359 758.906 290.359 755.969C291.359 753 292.766 750.422 294.578 748.234C296.391 746.047 298.547 744.359 301.047 743.172C303.578 741.953 306.375 741.344 309.438 741.344C311.938 741.344 314.188 741.688 316.188 742.375C318.188 743.031 319.891 744.094 321.297 745.562C322.734 747.031 323.828 748.938 324.578 751.281C325.328 753.594 325.703 756.422 325.703 759.766V793H316.984V759.672C316.984 757.016 316.594 754.891 315.812 753.297C315.031 751.672 313.891 750.5 312.391 749.781C310.891 749.031 309.047 748.656 306.859 748.656C304.703 748.656 302.734 749.109 300.953 750.016C299.203 750.922 297.688 752.172 296.406 753.766C295.156 755.359 294.172 757.188 293.453 759.25C292.766 761.281 292.422 763.438 292.422 765.719ZM359.734 793.938C356.203 793.938 353 793.344 350.125 792.156C347.281 790.938 344.828 789.234 342.766 787.047C340.734 784.859 339.172 782.266 338.078 779.266C336.984 776.266 336.438 772.984 336.438 769.422V767.453C336.438 763.328 337.047 759.656 338.266 756.438C339.484 753.188 341.141 750.438 343.234 748.188C345.328 745.938 347.703 744.234 350.359 743.078C353.016 741.922 355.766 741.344 358.609 741.344C362.234 741.344 365.359 741.969 367.984 743.219C370.641 744.469 372.812 746.219 374.5 748.469C376.188 750.688 377.438 753.312 378.25 756.344C379.062 759.344 379.469 762.625 379.469 766.188V770.078H341.594V763H370.797V762.344C370.672 760.094 370.203 757.906 369.391 755.781C368.609 753.656 367.359 751.906 365.641 750.531C363.922 749.156 361.578 748.469 358.609 748.469C356.641 748.469 354.828 748.891 353.172 749.734C351.516 750.547 350.094 751.766 348.906 753.391C347.719 755.016 346.797 757 346.141 759.344C345.484 761.688 345.156 764.391 345.156 767.453V769.422C345.156 771.828 345.484 774.094 346.141 776.219C346.828 778.312 347.812 780.156 349.094 781.75C350.406 783.344 351.984 784.594 353.828 785.5C355.703 786.406 357.828 786.859 360.203 786.859C363.266 786.859 365.859 786.234 367.984 784.984C370.109 783.734 371.969 782.062 373.562 779.969L378.812 784.141C377.719 785.797 376.328 787.375 374.641 788.875C372.953 790.375 370.875 791.594 368.406 792.531C365.969 793.469 363.078 793.938 359.734 793.938ZM422.828 721V793H414.109V721H422.828ZM457.797 793.938C454.266 793.938 451.062 793.344 448.188 792.156C445.344 790.938 442.891 789.234 440.828 787.047C438.797 784.859 437.234 782.266 436.141 779.266C435.047 776.266 434.5 772.984 434.5 769.422V767.453C434.5 763.328 435.109 759.656 436.328 756.438C437.547 753.188 439.203 750.438 441.297 748.188C443.391 745.938 445.766 744.234 448.422 743.078C451.078 741.922 453.828 741.344 456.672 741.344C460.297 741.344 463.422 741.969 466.047 743.219C468.703 744.469 470.875 746.219 472.562 748.469C474.25 750.688 475.5 753.312 476.312 756.344C477.125 759.344 477.531 762.625 477.531 766.188V770.078H439.656V763H468.859V762.344C468.734 760.094 468.266 757.906 467.453 755.781C466.672 753.656 465.422 751.906 463.703 750.531C461.984 749.156 459.641 748.469 456.672 748.469C454.703 748.469 452.891 748.891 451.234 749.734C449.578 750.547 448.156 751.766 446.969 753.391C445.781 755.016 444.859 757 444.203 759.344C443.547 761.688 443.219 764.391 443.219 767.453V769.422C443.219 771.828 443.547 774.094 444.203 776.219C444.891 778.312 445.875 780.156 447.156 781.75C448.469 783.344 450.047 784.594 451.891 785.5C453.766 786.406 455.891 786.859 458.266 786.859C461.328 786.859 463.922 786.234 466.047 784.984C468.172 783.734 470.031 782.062 471.625 779.969L476.875 784.141C475.781 785.797 474.391 787.375 472.703 788.875C471.016 790.375 468.938 791.594 466.469 792.531C464.031 793.469 461.141 793.938 457.797 793.938ZM500.594 793H491.922V736.938C491.922 733.281 492.578 730.203 493.891 727.703C495.234 725.172 497.156 723.266 499.656 721.984C502.156 720.672 505.125 720.016 508.562 720.016C509.562 720.016 510.562 720.078 511.562 720.203C512.594 720.328 513.594 720.516 514.562 720.766L514.094 727.844C513.438 727.688 512.688 727.578 511.844 727.516C511.031 727.453 510.219 727.422 509.406 727.422C507.562 727.422 505.969 727.797 504.625 728.547C503.312 729.266 502.312 730.328 501.625 731.734C500.938 733.141 500.594 734.875 500.594 736.938V793ZM511.375 742.281V748.938H483.906V742.281H511.375ZM542.266 742.281V748.938H514.844V742.281H542.266ZM524.125 729.953H532.797V780.438C532.797 782.156 533.062 783.453 533.594 784.328C534.125 785.203 534.812 785.781 535.656 786.062C536.5 786.344 537.406 786.484 538.375 786.484C539.094 786.484 539.844 786.422 540.625 786.297C541.438 786.141 542.047 786.016 542.453 785.922L542.5 793C541.812 793.219 540.906 793.422 539.781 793.609C538.688 793.828 537.359 793.938 535.797 793.938C533.672 793.938 531.719 793.516 529.938 792.672C528.156 791.828 526.734 790.422 525.672 788.453C524.641 786.453 524.125 783.766 524.125 780.391V729.953ZM605.781 779.547C605.781 778.297 605.5 777.141 604.938 776.078C604.406 774.984 603.297 774 601.609 773.125C599.953 772.219 597.453 771.438 594.109 770.781C591.297 770.188 588.75 769.484 586.469 768.672C584.219 767.859 582.297 766.875 580.703 765.719C579.141 764.562 577.938 763.203 577.094 761.641C576.25 760.078 575.828 758.25 575.828 756.156C575.828 754.156 576.266 752.266 577.141 750.484C578.047 748.703 579.312 747.125 580.938 745.75C582.594 744.375 584.578 743.297 586.891 742.516C589.203 741.734 591.781 741.344 594.625 741.344C598.688 741.344 602.156 742.062 605.031 743.5C607.906 744.938 610.109 746.859 611.641 749.266C613.172 751.641 613.938 754.281 613.938 757.188H605.266C605.266 755.781 604.844 754.422 604 753.109C603.188 751.766 601.984 750.656 600.391 749.781C598.828 748.906 596.906 748.469 594.625 748.469C592.219 748.469 590.266 748.844 588.766 749.594C587.297 750.312 586.219 751.234 585.531 752.359C584.875 753.484 584.547 754.672 584.547 755.922C584.547 756.859 584.703 757.703 585.016 758.453C585.359 759.172 585.953 759.844 586.797 760.469C587.641 761.062 588.828 761.625 590.359 762.156C591.891 762.688 593.844 763.219 596.219 763.75C600.375 764.688 603.797 765.812 606.484 767.125C609.172 768.438 611.172 770.047 612.484 771.953C613.797 773.859 614.453 776.172 614.453 778.891C614.453 781.109 613.984 783.141 613.047 784.984C612.141 786.828 610.812 788.422 609.062 789.766C607.344 791.078 605.281 792.109 602.875 792.859C600.5 793.578 597.828 793.938 594.859 793.938C590.391 793.938 586.609 793.141 583.516 791.547C580.422 789.953 578.078 787.891 576.484 785.359C574.891 782.828 574.094 780.156 574.094 777.344H582.812C582.938 779.719 583.625 781.609 584.875 783.016C586.125 784.391 587.656 785.375 589.469 785.969C591.281 786.531 593.078 786.812 594.859 786.812C597.234 786.812 599.219 786.5 600.812 785.875C602.438 785.25 603.672 784.391 604.516 783.297C605.359 782.203 605.781 780.953 605.781 779.547ZM635.266 742.281V793H626.547V742.281H635.266ZM625.891 728.828C625.891 727.422 626.312 726.234 627.156 725.266C628.031 724.297 629.312 723.812 631 723.812C632.656 723.812 633.922 724.297 634.797 725.266C635.703 726.234 636.156 727.422 636.156 728.828C636.156 730.172 635.703 731.328 634.797 732.297C633.922 733.234 632.656 733.703 631 733.703C629.312 733.703 628.031 733.234 627.156 732.297C626.312 731.328 625.891 730.172 625.891 728.828ZM681.156 783.156V721H689.875V793H681.906L681.156 783.156ZM647.031 768.203V767.219C647.031 763.344 647.5 759.828 648.438 756.672C649.406 753.484 650.766 750.75 652.516 748.469C654.297 746.188 656.406 744.438 658.844 743.219C661.312 741.969 664.062 741.344 667.094 741.344C670.281 741.344 673.062 741.906 675.438 743.031C677.844 744.125 679.875 745.734 681.531 747.859C683.219 749.953 684.547 752.484 685.516 755.453C686.484 758.422 687.156 761.781 687.531 765.531V769.844C687.188 773.562 686.516 776.906 685.516 779.875C684.547 782.844 683.219 785.375 681.531 787.469C679.875 789.562 677.844 791.172 675.438 792.297C673.031 793.391 670.219 793.938 667 793.938C664.031 793.938 661.312 793.297 658.844 792.016C656.406 790.734 654.297 788.938 652.516 786.625C650.766 784.312 649.406 781.594 648.438 778.469C647.5 775.312 647.031 771.891 647.031 768.203ZM655.75 767.219V768.203C655.75 770.734 656 773.109 656.5 775.328C657.031 777.547 657.844 779.5 658.938 781.188C660.031 782.875 661.422 784.203 663.109 785.172C664.797 786.109 666.812 786.578 669.156 786.578C672.031 786.578 674.391 785.969 676.234 784.75C678.109 783.531 679.609 781.922 680.734 779.922C681.859 777.922 682.734 775.75 683.359 773.406V762.109C682.984 760.391 682.438 758.734 681.719 757.141C681.031 755.516 680.125 754.078 679 752.828C677.906 751.547 676.547 750.531 674.922 749.781C673.328 749.031 671.438 748.656 669.25 748.656C666.875 748.656 664.828 749.156 663.109 750.156C661.422 751.125 660.031 752.469 658.938 754.188C657.844 755.875 657.031 757.844 656.5 760.094C656 762.312 655.75 764.688 655.75 767.219ZM724.422 793.938C720.891 793.938 717.688 793.344 714.812 792.156C711.969 790.938 709.516 789.234 707.453 787.047C705.422 784.859 703.859 782.266 702.766 779.266C701.672 776.266 701.125 772.984 701.125 769.422V767.453C701.125 763.328 701.734 759.656 702.953 756.438C704.172 753.188 705.828 750.438 707.922 748.188C710.016 745.938 712.391 744.234 715.047 743.078C717.703 741.922 720.453 741.344 723.297 741.344C726.922 741.344 730.047 741.969 732.672 743.219C735.328 744.469 737.5 746.219 739.188 748.469C740.875 750.688 742.125 753.312 742.938 756.344C743.75 759.344 744.156 762.625 744.156 766.188V770.078H706.281V763H735.484V762.344C735.359 760.094 734.891 757.906 734.078 755.781C733.297 753.656 732.047 751.906 730.328 750.531C728.609 749.156 726.266 748.469 723.297 748.469C721.328 748.469 719.516 748.891 717.859 749.734C716.203 750.547 714.781 751.766 713.594 753.391C712.406 755.016 711.484 757 710.828 759.344C710.172 761.688 709.844 764.391 709.844 767.453V769.422C709.844 771.828 710.172 774.094 710.828 776.219C711.516 778.312 712.5 780.156 713.781 781.75C715.094 783.344 716.672 784.594 718.516 785.5C720.391 786.406 722.516 786.859 724.891 786.859C727.953 786.859 730.547 786.234 732.672 784.984C734.797 783.734 736.656 782.062 738.25 779.969L743.5 784.141C742.406 785.797 741.016 787.375 739.328 788.875C737.641 790.375 735.562 791.594 733.094 792.531C730.656 793.469 727.766 793.938 724.422 793.938ZM754.234 721H762.953V783.156L762.203 793H754.234V721ZM797.219 767.219V768.203C797.219 771.891 796.781 775.312 795.906 778.469C795.031 781.594 793.75 784.312 792.062 786.625C790.375 788.938 788.312 790.734 785.875 792.016C783.438 793.297 780.641 793.938 777.484 793.938C774.266 793.938 771.438 793.391 769 792.297C766.594 791.172 764.562 789.562 762.906 787.469C761.25 785.375 759.922 782.844 758.922 779.875C757.953 776.906 757.281 773.562 756.906 769.844V765.531C757.281 761.781 757.953 758.422 758.922 755.453C759.922 752.484 761.25 749.953 762.906 747.859C764.562 745.734 766.594 744.125 769 743.031C771.406 741.906 774.203 741.344 777.391 741.344C780.578 741.344 783.406 741.969 785.875 743.219C788.344 744.438 790.406 746.188 792.062 748.469C793.75 750.75 795.031 753.484 795.906 756.672C796.781 759.828 797.219 763.344 797.219 767.219ZM788.5 768.203V767.219C788.5 764.688 788.266 762.312 787.797 760.094C787.328 757.844 786.578 755.875 785.547 754.188C784.516 752.469 783.156 751.125 781.469 750.156C779.781 749.156 777.703 748.656 775.234 748.656C773.047 748.656 771.141 749.031 769.516 749.781C767.922 750.531 766.562 751.547 765.438 752.828C764.312 754.078 763.391 755.516 762.672 757.141C761.984 758.734 761.469 760.391 761.125 762.109V773.406C761.625 775.594 762.438 777.703 763.562 779.734C764.719 781.734 766.25 783.375 768.156 784.656C770.094 785.938 772.484 786.578 775.328 786.578C777.672 786.578 779.672 786.109 781.328 785.172C783.016 784.203 784.375 782.875 785.406 781.188C786.469 779.5 787.25 777.547 787.75 775.328C788.25 773.109 788.5 770.734 788.5 768.203ZM838.094 784.328V758.219C838.094 756.219 837.688 754.484 836.875 753.016C836.094 751.516 834.906 750.359 833.312 749.547C831.719 748.734 829.75 748.328 827.406 748.328C825.219 748.328 823.297 748.703 821.641 749.453C820.016 750.203 818.734 751.188 817.797 752.406C816.891 753.625 816.438 754.938 816.438 756.344H807.766C807.766 754.531 808.234 752.734 809.172 750.953C810.109 749.172 811.453 747.562 813.203 746.125C814.984 744.656 817.109 743.5 819.578 742.656C822.078 741.781 824.859 741.344 827.922 741.344C831.609 741.344 834.859 741.969 837.672 743.219C840.516 744.469 842.734 746.359 844.328 748.891C845.953 751.391 846.766 754.531 846.766 758.312V781.938C846.766 783.625 846.906 785.422 847.188 787.328C847.5 789.234 847.953 790.875 848.547 792.25V793H839.5C839.062 792 838.719 790.672 838.469 789.016C838.219 787.328 838.094 785.766 838.094 784.328ZM839.594 762.25L839.688 768.344H830.922C828.453 768.344 826.25 768.547 824.312 768.953C822.375 769.328 820.75 769.906 819.438 770.688C818.125 771.469 817.125 772.453 816.438 773.641C815.75 774.797 815.406 776.156 815.406 777.719C815.406 779.312 815.766 780.766 816.484 782.078C817.203 783.391 818.281 784.438 819.719 785.219C821.188 785.969 822.984 786.344 825.109 786.344C827.766 786.344 830.109 785.781 832.141 784.656C834.172 783.531 835.781 782.156 836.969 780.531C838.188 778.906 838.844 777.328 838.938 775.797L842.641 779.969C842.422 781.281 841.828 782.734 840.859 784.328C839.891 785.922 838.594 787.453 836.969 788.922C835.375 790.359 833.469 791.562 831.25 792.531C829.062 793.469 826.594 793.938 823.844 793.938C820.406 793.938 817.391 793.266 814.797 791.922C812.234 790.578 810.234 788.781 808.797 786.531C807.391 784.25 806.688 781.703 806.688 778.891C806.688 776.172 807.219 773.781 808.281 771.719C809.344 769.625 810.875 767.891 812.875 766.516C814.875 765.109 817.281 764.047 820.094 763.328C822.906 762.609 826.047 762.25 829.516 762.25H839.594ZM869.078 750.25V793H860.406V742.281H868.844L869.078 750.25ZM884.922 742L884.875 750.062C884.156 749.906 883.469 749.812 882.812 749.781C882.188 749.719 881.469 749.688 880.656 749.688C878.656 749.688 876.891 750 875.359 750.625C873.828 751.25 872.531 752.125 871.469 753.25C870.406 754.375 869.562 755.719 868.938 757.281C868.344 758.812 867.953 760.5 867.766 762.344L865.328 763.75C865.328 760.688 865.625 757.812 866.219 755.125C866.844 752.438 867.797 750.062 869.078 748C870.359 745.906 871.984 744.281 873.953 743.125C875.953 741.938 878.328 741.344 881.078 741.344C881.703 741.344 882.422 741.422 883.234 741.578C884.047 741.703 884.609 741.844 884.922 742ZM937.984 742.281V748.938H910.562V742.281H937.984ZM919.844 729.953H928.516V780.438C928.516 782.156 928.781 783.453 929.312 784.328C929.844 785.203 930.531 785.781 931.375 786.062C932.219 786.344 933.125 786.484 934.094 786.484C934.812 786.484 935.562 786.422 936.344 786.297C937.156 786.141 937.766 786.016 938.172 785.922L938.219 793C937.531 793.219 936.625 793.422 935.5 793.609C934.406 793.828 933.078 793.938 931.516 793.938C929.391 793.938 927.438 793.516 925.656 792.672C923.875 791.828 922.453 790.422 921.391 788.453C920.359 786.453 919.844 783.766 919.844 780.391V729.953ZM944.922 768.203V767.125C944.922 763.469 945.453 760.078 946.516 756.953C947.578 753.797 949.109 751.062 951.109 748.75C953.109 746.406 955.531 744.594 958.375 743.312C961.219 742 964.406 741.344 967.938 741.344C971.5 741.344 974.703 742 977.547 743.312C980.422 744.594 982.859 746.406 984.859 748.75C986.891 751.062 988.438 753.797 989.5 756.953C990.562 760.078 991.094 763.469 991.094 767.125V768.203C991.094 771.859 990.562 775.25 989.5 778.375C988.438 781.5 986.891 784.234 984.859 786.578C982.859 788.891 980.438 790.703 977.594 792.016C974.781 793.297 971.594 793.938 968.031 793.938C964.469 793.938 961.266 793.297 958.422 792.016C955.578 790.703 953.141 788.891 951.109 786.578C949.109 784.234 947.578 781.5 946.516 778.375C945.453 775.25 944.922 771.859 944.922 768.203ZM953.594 767.125V768.203C953.594 770.734 953.891 773.125 954.484 775.375C955.078 777.594 955.969 779.562 957.156 781.281C958.375 783 959.891 784.359 961.703 785.359C963.516 786.328 965.625 786.812 968.031 786.812C970.406 786.812 972.484 786.328 974.266 785.359C976.078 784.359 977.578 783 978.766 781.281C979.953 779.562 980.844 777.594 981.438 775.375C982.062 773.125 982.375 770.734 982.375 768.203V767.125C982.375 764.625 982.062 762.266 981.438 760.047C980.844 757.797 979.938 755.812 978.719 754.094C977.531 752.344 976.031 750.969 974.219 749.969C972.438 748.969 970.344 748.469 967.938 748.469C965.562 748.469 963.469 748.969 961.656 749.969C959.875 750.969 958.375 752.344 957.156 754.094C955.969 755.812 955.078 757.797 954.484 760.047C953.891 762.266 953.594 764.625 953.594 767.125ZM1046.08 786.812C1048.14 786.812 1050.05 786.391 1051.8 785.547C1053.55 784.703 1054.98 783.547 1056.11 782.078C1057.23 780.578 1057.88 778.875 1058.03 776.969H1066.28C1066.12 779.969 1065.11 782.766 1063.23 785.359C1061.39 787.922 1058.97 790 1055.97 791.594C1052.97 793.156 1049.67 793.938 1046.08 793.938C1042.27 793.938 1038.94 793.266 1036.09 791.922C1033.28 790.578 1030.94 788.734 1029.06 786.391C1027.22 784.047 1025.83 781.359 1024.89 778.328C1023.98 775.266 1023.53 772.031 1023.53 768.625V766.656C1023.53 763.25 1023.98 760.031 1024.89 757C1025.83 753.938 1027.22 751.234 1029.06 748.891C1030.94 746.547 1033.28 744.703 1036.09 743.359C1038.94 742.016 1042.27 741.344 1046.08 741.344C1050.05 741.344 1053.52 742.156 1056.48 743.781C1059.45 745.375 1061.78 747.562 1063.47 750.344C1065.19 753.094 1066.12 756.219 1066.28 759.719H1058.03C1057.88 757.625 1057.28 755.734 1056.25 754.047C1055.25 752.359 1053.88 751.016 1052.12 750.016C1050.41 748.984 1048.39 748.469 1046.08 748.469C1043.42 748.469 1041.19 749 1039.38 750.062C1037.59 751.094 1036.17 752.5 1035.11 754.281C1034.08 756.031 1033.33 757.984 1032.86 760.141C1032.42 762.266 1032.2 764.438 1032.2 766.656V768.625C1032.2 770.844 1032.42 773.031 1032.86 775.188C1033.3 777.344 1034.03 779.297 1035.06 781.047C1036.12 782.797 1037.55 784.203 1039.33 785.266C1041.14 786.297 1043.39 786.812 1046.08 786.812ZM1073.73 768.203V767.125C1073.73 763.469 1074.27 760.078 1075.33 756.953C1076.39 753.797 1077.92 751.062 1079.92 748.75C1081.92 746.406 1084.34 744.594 1087.19 743.312C1090.03 742 1093.22 741.344 1096.75 741.344C1100.31 741.344 1103.52 742 1106.36 743.312C1109.23 744.594 1111.67 746.406 1113.67 748.75C1115.7 751.062 1117.25 753.797 1118.31 756.953C1119.38 760.078 1119.91 763.469 1119.91 767.125V768.203C1119.91 771.859 1119.38 775.25 1118.31 778.375C1117.25 781.5 1115.7 784.234 1113.67 786.578C1111.67 788.891 1109.25 790.703 1106.41 792.016C1103.59 793.297 1100.41 793.938 1096.84 793.938C1093.28 793.938 1090.08 793.297 1087.23 792.016C1084.39 790.703 1081.95 788.891 1079.92 786.578C1077.92 784.234 1076.39 781.5 1075.33 778.375C1074.27 775.25 1073.73 771.859 1073.73 768.203ZM1082.41 767.125V768.203C1082.41 770.734 1082.7 773.125 1083.3 775.375C1083.89 777.594 1084.78 779.562 1085.97 781.281C1087.19 783 1088.7 784.359 1090.52 785.359C1092.33 786.328 1094.44 786.812 1096.84 786.812C1099.22 786.812 1101.3 786.328 1103.08 785.359C1104.89 784.359 1106.39 783 1107.58 781.281C1108.77 779.562 1109.66 777.594 1110.25 775.375C1110.88 773.125 1111.19 770.734 1111.19 768.203V767.125C1111.19 764.625 1110.88 762.266 1110.25 760.047C1109.66 757.797 1108.75 755.812 1107.53 754.094C1106.34 752.344 1104.84 750.969 1103.03 749.969C1101.25 748.969 1099.16 748.469 1096.75 748.469C1094.38 748.469 1092.28 748.969 1090.47 749.969C1088.69 750.969 1087.19 752.344 1085.97 754.094C1084.78 755.812 1083.89 757.797 1083.3 760.047C1082.7 762.266 1082.41 764.625 1082.41 767.125ZM1139.45 753.109V793H1130.78V742.281H1138.98L1139.45 753.109ZM1137.39 765.719L1133.78 765.578C1133.81 762.109 1134.33 758.906 1135.33 755.969C1136.33 753 1137.73 750.422 1139.55 748.234C1141.36 746.047 1143.52 744.359 1146.02 743.172C1148.55 741.953 1151.34 741.344 1154.41 741.344C1156.91 741.344 1159.16 741.688 1161.16 742.375C1163.16 743.031 1164.86 744.094 1166.27 745.562C1167.7 747.031 1168.8 748.938 1169.55 751.281C1170.3 753.594 1170.67 756.422 1170.67 759.766V793H1161.95V759.672C1161.95 757.016 1161.56 754.891 1160.78 753.297C1160 751.672 1158.86 750.5 1157.36 749.781C1155.86 749.031 1154.02 748.656 1151.83 748.656C1149.67 748.656 1147.7 749.109 1145.92 750.016C1144.17 750.922 1142.66 752.172 1141.38 753.766C1140.12 755.359 1139.14 757.188 1138.42 759.25C1137.73 761.281 1137.39 763.438 1137.39 765.719ZM1205.08 742.281V748.938H1177.66V742.281H1205.08ZM1186.94 729.953H1195.61V780.438C1195.61 782.156 1195.88 783.453 1196.41 784.328C1196.94 785.203 1197.62 785.781 1198.47 786.062C1199.31 786.344 1200.22 786.484 1201.19 786.484C1201.91 786.484 1202.66 786.422 1203.44 786.297C1204.25 786.141 1204.86 786.016 1205.27 785.922L1205.31 793C1204.62 793.219 1203.72 793.422 1202.59 793.609C1201.5 793.828 1200.17 793.938 1198.61 793.938C1196.48 793.938 1194.53 793.516 1192.75 792.672C1190.97 791.828 1189.55 790.422 1188.48 788.453C1187.45 786.453 1186.94 783.766 1186.94 780.391V729.953ZM1224.67 742.281V793H1215.95V742.281H1224.67ZM1215.3 728.828C1215.3 727.422 1215.72 726.234 1216.56 725.266C1217.44 724.297 1218.72 723.812 1220.41 723.812C1222.06 723.812 1223.33 724.297 1224.2 725.266C1225.11 726.234 1225.56 727.422 1225.56 728.828C1225.56 730.172 1225.11 731.328 1224.2 732.297C1223.33 733.234 1222.06 733.703 1220.41 733.703C1218.72 733.703 1217.44 733.234 1216.56 732.297C1215.72 731.328 1215.3 730.172 1215.3 728.828ZM1247.27 753.109V793H1238.59V742.281H1246.8L1247.27 753.109ZM1245.2 765.719L1241.59 765.578C1241.62 762.109 1242.14 758.906 1243.14 755.969C1244.14 753 1245.55 750.422 1247.36 748.234C1249.17 746.047 1251.33 744.359 1253.83 743.172C1256.36 741.953 1259.16 741.344 1262.22 741.344C1264.72 741.344 1266.97 741.688 1268.97 742.375C1270.97 743.031 1272.67 744.094 1274.08 745.562C1275.52 747.031 1276.61 748.938 1277.36 751.281C1278.11 753.594 1278.48 756.422 1278.48 759.766V793H1269.77V759.672C1269.77 757.016 1269.38 754.891 1268.59 753.297C1267.81 751.672 1266.67 750.5 1265.17 749.781C1263.67 749.031 1261.83 748.656 1259.64 748.656C1257.48 748.656 1255.52 749.109 1253.73 750.016C1251.98 750.922 1250.47 752.172 1249.19 753.766C1247.94 755.359 1246.95 757.188 1246.23 759.25C1245.55 761.281 1245.2 763.438 1245.2 765.719ZM1322.69 781.281V742.281H1331.41V793H1323.11L1322.69 781.281ZM1324.33 770.594L1327.94 770.5C1327.94 773.875 1327.58 777 1326.86 779.875C1326.17 782.719 1325.05 785.188 1323.48 787.281C1321.92 789.375 1319.88 791.016 1317.34 792.203C1314.81 793.359 1311.73 793.938 1308.11 793.938C1305.64 793.938 1303.38 793.578 1301.31 792.859C1299.28 792.141 1297.53 791.031 1296.06 789.531C1294.59 788.031 1293.45 786.078 1292.64 783.672C1291.86 781.266 1291.47 778.375 1291.47 775V742.281H1300.14V775.094C1300.14 777.375 1300.39 779.266 1300.89 780.766C1301.42 782.234 1302.12 783.406 1303 784.281C1303.91 785.125 1304.91 785.719 1306 786.062C1307.12 786.406 1308.28 786.578 1309.47 786.578C1313.16 786.578 1316.08 785.875 1318.23 784.469C1320.39 783.031 1321.94 781.109 1322.88 778.703C1323.84 776.266 1324.33 773.562 1324.33 770.594ZM1365.67 793.938C1362.14 793.938 1358.94 793.344 1356.06 792.156C1353.22 790.938 1350.77 789.234 1348.7 787.047C1346.67 784.859 1345.11 782.266 1344.02 779.266C1342.92 776.266 1342.38 772.984 1342.38 769.422V767.453C1342.38 763.328 1342.98 759.656 1344.2 756.438C1345.42 753.188 1347.08 750.438 1349.17 748.188C1351.27 745.938 1353.64 744.234 1356.3 743.078C1358.95 741.922 1361.7 741.344 1364.55 741.344C1368.17 741.344 1371.3 741.969 1373.92 743.219C1376.58 744.469 1378.75 746.219 1380.44 748.469C1382.12 750.688 1383.38 753.312 1384.19 756.344C1385 759.344 1385.41 762.625 1385.41 766.188V770.078H1347.53V763H1376.73V762.344C1376.61 760.094 1376.14 757.906 1375.33 755.781C1374.55 753.656 1373.3 751.906 1371.58 750.531C1369.86 749.156 1367.52 748.469 1364.55 748.469C1362.58 748.469 1360.77 748.891 1359.11 749.734C1357.45 750.547 1356.03 751.766 1354.84 753.391C1353.66 755.016 1352.73 757 1352.08 759.344C1351.42 761.688 1351.09 764.391 1351.09 767.453V769.422C1351.09 771.828 1351.42 774.094 1352.08 776.219C1352.77 778.312 1353.75 780.156 1355.03 781.75C1356.34 783.344 1357.92 784.594 1359.77 785.5C1361.64 786.406 1363.77 786.859 1366.14 786.859C1369.2 786.859 1371.8 786.234 1373.92 784.984C1376.05 783.734 1377.91 782.062 1379.5 779.969L1384.75 784.141C1383.66 785.797 1382.27 787.375 1380.58 788.875C1378.89 790.375 1376.81 791.594 1374.34 792.531C1371.91 793.469 1369.02 793.938 1365.67 793.938Z" fill="black"/>
<defs>
<clipPath id="clip0_534_3687">
<rect width="751.131" height="569.602" fill="white" transform="translate(329)"/>
</clipPath>
</defs>
</svg>
